<svg width="56" height="56" viewBox="0 0 56 56" fill="none" xmlns="http://www.w3.org/2000/svg">
<circle cx="28" cy="28" r="27.5" fill="white" stroke="#E2E2ED"/>
<g clip-path="url(#clip0_4_2913)">
<path d="M28.8334 34.6667C29.9381 34.6654 30.9971 34.2259 31.7782 33.4448C32.5593 32.6637 32.9988 31.6047 33.0001 30.5V23.2025C33.0014 22.7645 32.9157 22.3305 32.7481 21.9259C32.5804 21.5212 32.3341 21.1538 32.0234 20.845L30.1551 18.9767C29.8463 18.666 29.4789 18.4197 29.0742 18.252C28.6695 18.0844 28.2356 17.9987 27.7976 18H23.8334C22.7288 18.0013 21.6697 18.4407 20.8886 19.2219C20.1075 20.003 19.6681 21.062 19.6667 22.1667V30.5C19.6681 31.6047 20.1075 32.6637 20.8886 33.4448C21.6697 34.2259 22.7288 34.6654 23.8334 34.6667H28.8334ZM21.3334 30.5V22.1667C21.3334 21.5036 21.5968 20.8678 22.0656 20.3989C22.5345 19.9301 23.1704 19.6667 23.8334 19.6667C23.8334 19.6667 27.9326 19.6783 28.0001 19.6867V21.3333C28.0001 21.7754 28.1757 22.1993 28.4882 22.5119C28.8008 22.8244 29.2247 23 29.6667 23H31.3134C31.3217 23.0675 31.3334 30.5 31.3334 30.5C31.3334 31.1631 31.07 31.7989 30.6012 32.2678C30.1323 32.7366 29.4965 33 28.8334 33H23.8334C23.1704 33 22.5345 32.7366 22.0656 32.2678C21.5968 31.7989 21.3334 31.1631 21.3334 30.5ZM36.3334 24.6667V33.8333C36.3321 34.938 35.8927 35.9971 35.1116 36.7782C34.3305 37.5593 33.2714 37.9987 32.1667 38H24.6667C24.4457 38 24.2338 37.9122 24.0775 37.7559C23.9212 37.5997 23.8334 37.3877 23.8334 37.1667C23.8334 36.9457 23.9212 36.7337 24.0775 36.5774C24.2338 36.4211 24.4457 36.3333 24.6667 36.3333H32.1667C32.8298 36.3333 33.4657 36.07 33.9345 35.6011C34.4034 35.1323 34.6667 34.4964 34.6667 33.8333V24.6667C34.6667 24.4457 34.7545 24.2337 34.9108 24.0774C35.0671 23.9211 35.2791 23.8333 35.5001 23.8333C35.7211 23.8333 35.9331 23.9211 36.0893 24.0774C36.2456 24.2337 36.3334 24.4457 36.3334 24.6667Z" fill="#7780A1"/>
</g>
<defs>
<clipPath id="clip0_4_2913">
<rect width="20" height="20" fill="white" transform="translate(18 18)"/>
</clipPath>
</defs>
</svg>
