<svg width="926" height="135" viewBox="0 0 926 135" fill="none" xmlns="http://www.w3.org/2000/svg">
<g clip-path="url(#clip0_4_2806)">
<path d="M834.748 8.81594C835.438 8.81594 835.998 8.2564 835.998 7.56613V6.25382C835.998 2.80546 833.192 0 829.744 0C829.744 0 810.152 0.00293706 810.104 0.00862372C808.455 0.0662402 806.871 0.773885 805.729 1.97033C804.559 3.19665 803.949 4.79166 804.006 6.46985C804.004 6.50166 804.002 24.4964 804.002 24.4964C804.002 28.6339 807.369 32 811.506 32H829.744C833.192 32 835.998 29.1945 835.998 25.7462V16.2571C835.998 12.8087 833.192 10.0033 829.744 10.0033H810.251C808.245 10.0033 806.6 8.43487 806.506 6.43267C806.459 5.41457 806.825 4.44272 807.537 3.69608C808.26 2.93869 809.275 2.50438 810.322 2.50438C810.359 2.50438 829.744 2.49963 829.744 2.49963C831.814 2.49963 833.498 4.18375 833.498 6.25382V7.56613C833.498 8.2564 834.058 8.81594 834.748 8.81594ZM810.251 12.5029H829.744C831.814 12.5029 833.498 14.187 833.498 16.2571V25.7462C833.498 27.8162 831.814 29.5004 829.744 29.5004H811.506C808.747 29.5004 806.502 27.2556 806.502 24.4964V11.2581C807.547 12.0412 808.846 12.5029 810.251 12.5029ZM830.998 21.0016C830.998 21.8644 830.299 22.5639 829.436 22.5639C827.364 22.4816 827.364 19.5214 829.436 19.4394C830.299 19.4394 830.998 20.1388 830.998 21.0016ZM830.998 6.25382C830.998 5.56355 830.439 5.00401 829.749 5.00401H810.251C808.593 5.07 808.594 7.43821 810.251 7.50364H829.749C830.439 7.50364 830.998 6.94409 830.998 6.25382Z" fill="#060714"/>
</g>
<path d="M766.483 92.912C763.795 92.912 761.475 92.4 759.523 91.376C757.603 90.352 756.131 88.992 755.107 87.296C754.083 85.568 753.571 83.648 753.571 81.536H760.147C760.147 83.232 760.707 84.608 761.827 85.664C762.979 86.688 764.531 87.2 766.483 87.2C767.795 87.2 768.915 86.96 769.843 86.48C770.803 85.968 771.539 85.28 772.051 84.416C772.563 83.52 772.819 82.496 772.819 81.344C772.819 79.616 772.259 78.208 771.139 77.12C770.019 76 768.483 75.44 766.531 75.44C765.571 75.44 764.723 75.568 763.987 75.824C763.283 76.08 762.659 76.416 762.115 76.832L758.995 71.456L770.515 63.584L770.083 62.768H755.011V56.96H777.907V63.968L766.051 71.84L762.355 71.168C762.963 70.976 763.619 70.832 764.323 70.736C765.027 70.608 765.795 70.544 766.627 70.544C769.283 70.544 771.555 71.008 773.443 71.936C775.363 72.832 776.835 74.08 777.859 75.68C778.883 77.28 779.395 79.12 779.395 81.2V81.824C779.395 83.84 778.883 85.696 777.859 87.392C776.835 89.056 775.363 90.4 773.443 91.424C771.523 92.416 769.203 92.912 766.483 92.912ZM797.546 92.912C794.794 92.912 792.426 92.368 790.442 91.28C788.49 90.192 786.986 88.752 785.93 86.96C784.906 85.136 784.394 83.152 784.394 81.008H790.97C790.97 82.224 791.242 83.296 791.786 84.224C792.362 85.152 793.146 85.888 794.138 86.432C795.13 86.944 796.282 87.2 797.594 87.2C798.97 87.2 800.154 86.912 801.146 86.336C802.138 85.76 802.89 84.976 803.402 83.984C803.946 82.992 804.218 81.856 804.218 80.576C804.218 79.328 803.946 78.208 803.402 77.216C802.89 76.192 802.138 75.392 801.146 74.816C800.186 74.208 799.018 73.904 797.642 73.904C796.49 73.904 795.402 74.128 794.378 74.576C793.354 75.024 792.554 75.616 791.978 76.352H785.69L787.466 56.96H807.77V62.768H790.442L792.842 60.896L791.69 72.992L790.058 72.512C790.986 71.456 792.122 70.576 793.466 69.872C794.81 69.168 796.506 68.816 798.554 68.816C801.146 68.816 803.354 69.344 805.178 70.4C807.002 71.456 808.394 72.864 809.354 74.624C810.314 76.352 810.794 78.24 810.794 80.288V80.912C810.794 82.992 810.282 84.944 809.258 86.768C808.234 88.592 806.73 90.08 804.746 91.232C802.794 92.352 800.394 92.912 797.546 92.912ZM815.541 92V84.32H823.029V92H815.541ZM841.399 92.912C838.647 92.912 836.279 92.368 834.295 91.28C832.343 90.192 830.839 88.752 829.783 86.96C828.759 85.136 828.247 83.152 828.247 81.008H834.823C834.823 82.224 835.095 83.296 835.639 84.224C836.215 85.152 836.999 85.888 837.991 86.432C838.983 86.944 840.135 87.2 841.447 87.2C842.823 87.2 844.007 86.912 844.999 86.336C845.991 85.76 846.743 84.976 847.255 83.984C847.799 82.992 848.071 81.856 848.071 80.576C848.071 79.328 847.799 78.208 847.255 77.216C846.743 76.192 845.991 75.392 844.999 74.816C844.039 74.208 842.871 73.904 841.495 73.904C840.343 73.904 839.255 74.128 838.231 74.576C837.207 75.024 836.407 75.616 835.831 76.352H829.543L831.319 56.96H851.623V62.768H834.295L836.695 60.896L835.543 72.992L833.911 72.512C834.839 71.456 835.975 70.576 837.319 69.872C838.663 69.168 840.359 68.816 842.407 68.816C844.999 68.816 847.207 69.344 849.031 70.4C850.855 71.456 852.247 72.864 853.207 74.624C854.167 76.352 854.647 78.24 854.647 80.288V80.912C854.647 82.992 854.135 84.944 853.111 86.768C852.087 88.592 850.583 90.08 848.599 91.232C846.647 92.352 844.247 92.912 841.399 92.912ZM872.402 92.96C869.714 92.96 867.346 92.528 865.298 91.664C863.25 90.8 861.65 89.568 860.498 87.968C859.346 86.368 858.77 84.464 858.77 82.256C858.77 80.784 859.026 79.488 859.538 78.368C860.05 77.216 860.754 76.24 861.65 75.44C862.546 74.608 863.602 73.984 864.818 73.568V72.992C863.89 72.576 863.042 72.032 862.274 71.36C861.538 70.688 860.946 69.872 860.498 68.912C860.082 67.952 859.874 66.848 859.874 65.6C859.874 63.488 860.418 61.728 861.506 60.32C862.626 58.88 864.13 57.808 866.018 57.104C867.938 56.368 870.066 56 872.402 56C874.77 56 876.898 56.368 878.786 57.104C880.706 57.808 882.21 58.88 883.298 60.32C884.418 61.728 884.978 63.488 884.978 65.6C884.978 66.848 884.754 67.952 884.306 68.912C883.89 69.872 883.314 70.688 882.578 71.36C881.842 72.032 880.994 72.576 880.034 72.992V73.568C881.25 73.984 882.306 74.608 883.202 75.44C884.13 76.272 884.834 77.264 885.314 78.416C885.826 79.536 886.082 80.816 886.082 82.256C886.082 84.464 885.506 86.368 884.354 87.968C883.234 89.568 881.65 90.8 879.602 91.664C877.554 92.528 875.154 92.96 872.402 92.96ZM872.402 87.344C873.874 87.344 875.138 87.12 876.194 86.672C877.25 86.224 878.066 85.568 878.642 84.704C879.218 83.84 879.506 82.8 879.506 81.584C879.506 80.368 879.218 79.344 878.642 78.512C878.098 77.648 877.282 76.992 876.194 76.544C875.138 76.096 873.874 75.872 872.402 75.872C870.962 75.872 869.714 76.096 868.658 76.544C867.602 76.992 866.786 77.648 866.21 78.512C865.634 79.344 865.346 80.368 865.346 81.584C865.346 82.8 865.634 83.84 866.21 84.704C866.786 85.568 867.602 86.224 868.658 86.672C869.714 87.12 870.962 87.344 872.402 87.344ZM872.402 70.784C874.258 70.784 875.714 70.4 876.77 69.632C877.858 68.832 878.402 67.68 878.402 66.176C878.402 64.608 877.858 63.456 876.77 62.72C875.682 61.984 874.226 61.616 872.402 61.616C870.578 61.616 869.122 62 868.034 62.768C866.978 63.504 866.45 64.64 866.45 66.176C866.45 67.68 866.994 68.832 868.082 69.632C869.17 70.4 870.61 70.784 872.402 70.784Z" fill="#060714"/>
<path d="M780.304 125V113.364H787.327V114.614H781.713V118.545H786.963V119.795H781.713V123.75H787.418V125H780.304ZM789.431 114.614V113.364H798.158V114.614H794.499V125H793.09V114.614H789.431ZM800.533 125V113.364H801.942V118.545H808.146V113.364H809.555V125H808.146V119.795H801.942V125H800.533ZM823.64 116.273C823.572 115.697 823.295 115.25 822.81 114.932C822.326 114.614 821.731 114.455 821.026 114.455C820.511 114.455 820.06 114.538 819.674 114.705C819.291 114.871 818.992 115.1 818.776 115.392C818.564 115.684 818.458 116.015 818.458 116.386C818.458 116.697 818.532 116.964 818.68 117.188C818.831 117.407 819.024 117.591 819.259 117.739C819.494 117.883 819.74 118.002 819.998 118.097C820.255 118.187 820.492 118.261 820.708 118.318L821.89 118.636C822.193 118.716 822.53 118.826 822.901 118.966C823.276 119.106 823.634 119.297 823.975 119.54C824.32 119.778 824.604 120.085 824.827 120.46C825.051 120.835 825.163 121.295 825.163 121.841C825.163 122.47 824.998 123.038 824.668 123.545C824.343 124.053 823.865 124.456 823.237 124.756C822.612 125.055 821.852 125.205 820.958 125.205C820.125 125.205 819.403 125.07 818.793 124.801C818.187 124.532 817.71 124.157 817.362 123.676C817.017 123.195 816.822 122.636 816.776 122H818.231C818.269 122.439 818.416 122.803 818.674 123.091C818.935 123.375 819.265 123.587 819.663 123.727C820.064 123.864 820.496 123.932 820.958 123.932C821.496 123.932 821.979 123.845 822.407 123.67C822.835 123.492 823.174 123.246 823.424 122.932C823.674 122.614 823.799 122.242 823.799 121.818C823.799 121.432 823.691 121.117 823.475 120.875C823.259 120.633 822.975 120.436 822.623 120.284C822.271 120.133 821.89 120 821.481 119.886L820.049 119.477C819.14 119.216 818.42 118.843 817.89 118.358C817.36 117.873 817.094 117.239 817.094 116.455C817.094 115.803 817.271 115.235 817.623 114.75C817.979 114.261 818.456 113.883 819.055 113.614C819.657 113.341 820.329 113.205 821.072 113.205C821.822 113.205 822.488 113.339 823.072 113.608C823.655 113.873 824.117 114.237 824.458 114.699C824.803 115.161 824.985 115.686 825.004 116.273H823.64ZM827.498 128.273V116.273H828.793V117.659H828.952C829.051 117.508 829.187 117.314 829.361 117.08C829.539 116.841 829.793 116.629 830.123 116.443C830.456 116.254 830.907 116.159 831.475 116.159C832.21 116.159 832.857 116.343 833.418 116.71C833.979 117.078 834.416 117.598 834.731 118.273C835.045 118.947 835.202 119.742 835.202 120.659C835.202 121.583 835.045 122.384 834.731 123.062C834.416 123.737 833.981 124.259 833.424 124.631C832.867 124.998 832.225 125.182 831.498 125.182C830.937 125.182 830.488 125.089 830.151 124.903C829.814 124.714 829.554 124.5 829.373 124.261C829.191 124.019 829.051 123.818 828.952 123.659H828.838V128.273H827.498ZM828.816 120.636C828.816 121.295 828.912 121.877 829.106 122.381C829.299 122.881 829.581 123.273 829.952 123.557C830.323 123.837 830.778 123.977 831.316 123.977C831.876 123.977 832.344 123.83 832.719 123.534C833.098 123.235 833.382 122.833 833.571 122.33C833.765 121.822 833.861 121.258 833.861 120.636C833.861 120.023 833.767 119.47 833.577 118.977C833.392 118.481 833.109 118.089 832.731 117.801C832.356 117.509 831.884 117.364 831.316 117.364C830.77 117.364 830.312 117.502 829.941 117.778C829.57 118.051 829.289 118.434 829.1 118.926C828.91 119.415 828.816 119.985 828.816 120.636ZM841.107 125.182C840.266 125.182 839.54 124.996 838.931 124.625C838.324 124.25 837.857 123.727 837.527 123.057C837.201 122.383 837.038 121.598 837.038 120.705C837.038 119.811 837.201 119.023 837.527 118.341C837.857 117.655 838.315 117.121 838.902 116.739C839.493 116.352 840.182 116.159 840.97 116.159C841.425 116.159 841.874 116.235 842.317 116.386C842.76 116.538 843.163 116.784 843.527 117.125C843.891 117.462 844.181 117.909 844.396 118.466C844.612 119.023 844.72 119.708 844.72 120.523V121.091H837.993V119.932H843.357C843.357 119.439 843.258 119 843.061 118.614C842.868 118.227 842.592 117.922 842.232 117.699C841.876 117.475 841.455 117.364 840.97 117.364C840.436 117.364 839.974 117.496 839.584 117.761C839.198 118.023 838.9 118.364 838.692 118.784C838.484 119.205 838.379 119.655 838.379 120.136V120.909C838.379 121.568 838.493 122.127 838.72 122.585C838.951 123.04 839.271 123.386 839.681 123.625C840.09 123.86 840.565 123.977 841.107 123.977C841.459 123.977 841.777 123.928 842.061 123.83C842.349 123.727 842.597 123.576 842.806 123.375C843.014 123.17 843.175 122.917 843.288 122.614L844.584 122.977C844.448 123.417 844.218 123.803 843.896 124.136C843.574 124.466 843.177 124.723 842.703 124.909C842.23 125.091 841.698 125.182 841.107 125.182ZM848.301 119.75V125H846.96V116.273H848.256V117.636H848.369C848.574 117.193 848.884 116.837 849.301 116.568C849.718 116.295 850.256 116.159 850.915 116.159C851.506 116.159 852.023 116.28 852.466 116.523C852.909 116.761 853.254 117.125 853.5 117.614C853.746 118.098 853.869 118.712 853.869 119.455V125H852.528V119.545C852.528 118.86 852.35 118.326 851.994 117.943C851.638 117.557 851.149 117.364 850.528 117.364C850.1 117.364 849.718 117.456 849.381 117.642C849.047 117.828 848.784 118.098 848.591 118.455C848.398 118.811 848.301 119.242 848.301 119.75ZM860.315 116.273V117.409H855.792V116.273H860.315ZM857.11 114.182H858.451V122.5C858.451 122.879 858.506 123.163 858.616 123.352C858.73 123.538 858.874 123.663 859.048 123.727C859.226 123.788 859.413 123.818 859.61 123.818C859.758 123.818 859.879 123.811 859.974 123.795C860.069 123.777 860.144 123.761 860.201 123.75L860.474 124.955C860.383 124.989 860.256 125.023 860.093 125.057C859.93 125.095 859.724 125.114 859.474 125.114C859.095 125.114 858.724 125.032 858.36 124.869C858.001 124.706 857.701 124.458 857.463 124.125C857.228 123.792 857.11 123.371 857.11 122.864V114.182Z" fill="#7780A1"/>
<g clip-path="url(#clip1_4_2806)">
<path d="M583.597 18.3172L588.417 13.3892C588.899 12.8962 589.69 12.8876 590.183 13.3698C590.676 13.8521 590.685 14.6428 590.202 15.1359C590.202 15.1359 585.361 20.0853 585.355 20.091C584.612 20.8214 583.644 21.1856 582.677 21.1857C581.688 21.1857 580.699 20.8051 579.953 20.0459C579.237 19.3184 578.848 18.3557 578.857 17.3354C578.865 16.315 579.27 15.3591 579.998 14.6436L584.934 9.7536C585.424 9.26816 586.214 9.27191 586.7 9.76185C587.185 10.2518 587.181 11.0426 586.691 11.528L581.752 16.4212C581.497 16.6721 581.357 17.003 581.354 17.3563C581.333 18.0669 581.954 18.6983 582.665 18.6896C583.016 18.6901 583.346 18.5603 583.597 18.3172ZM584.086 31.9965C584.058 31.9966 584.114 31.9965 584.086 31.9965V31.9965ZM599.831 13.7757C599.734 13.0927 599.102 12.6174 598.42 12.7136C597.737 12.8101 597.261 13.4419 597.358 14.1249C597.448 14.7692 597.493 15.4279 597.489 16.0827C597.486 16.7683 597.43 17.4567 597.324 18.1289C597.262 18.5241 597.04 18.8547 596.699 19.0596C596.352 19.2684 595.93 19.3112 595.54 19.1771C594.778 18.9152 593.98 18.7972 593.166 18.825C589.725 18.9447 586.935 21.734 586.816 25.1752C586.788 25.9884 586.906 26.787 587.168 27.5491C587.302 27.9391 587.259 28.3617 587.05 28.7084C586.845 29.0491 586.515 29.2712 586.12 29.3335C585.447 29.4396 584.759 29.4952 584.073 29.4987C576.832 29.6575 570.353 23.2719 570.514 16.0111C570.364 8.76124 576.752 2.37263 584.002 2.52299C584.749 2.52299 585.499 2.58519 586.231 2.70789C586.911 2.82173 587.555 2.36314 587.669 1.68274C587.783 1.00247 587.324 0.358611 586.644 0.244526C577.089 -1.4963 567.871 6.297 568.016 16.0113C567.827 24.6206 575.498 32.1856 584.086 31.9965C584.898 31.9923 585.713 31.9264 586.509 31.8007C588.831 31.4808 590.335 28.9328 589.53 26.7373C588.615 24.2188 590.567 21.3661 593.253 21.3213C593.759 21.3035 594.256 21.377 594.728 21.5392C595.818 21.9136 597.006 21.7901 597.987 21.1998C598.957 20.6162 599.615 19.6388 599.792 18.5182C599.917 17.7219 599.983 16.9068 599.987 16.0957C599.991 15.3202 599.939 14.5396 599.831 13.7757ZM598.472 8.57503C599.392 6.96053 599.987 4.84386 599.987 3.18265C599.987 2.05241 599.373 0.960387 598.423 0.400449C597.6 -0.0846807 596.658 -0.10254 595.838 0.351368C594.934 0.852545 594.087 1.13867 593.268 1.41536C591.895 1.87957 590.474 2.35958 589.293 3.77962C588.425 4.82307 588.017 6.14033 588.146 7.4885C588.343 10.0463 590.671 12.1192 593.234 12.077C595.324 12.077 597.184 10.8333 598.472 8.57503ZM597.155 2.55247C597.317 2.64801 597.49 2.9014 597.49 3.18265C597.49 4.21423 597.122 5.89904 596.302 7.3377C595.408 9.02438 593.462 10.4366 591.561 8.98804C591.027 8.55055 590.698 7.93373 590.632 7.25115C590.567 6.57069 590.774 5.9051 591.213 5.37726C591.943 4.49992 592.834 4.19862 594.068 3.78168C594.949 3.48401 595.947 3.14675 597.049 2.53623C597.062 2.52924 597.071 2.52399 597.084 2.52399C597.099 2.52393 597.119 2.53142 597.155 2.55247ZM585.313 6.58187C585.313 7.44404 584.614 8.14298 583.752 8.14298C581.683 8.06642 581.684 5.09701 583.752 5.02076C584.614 5.02076 585.313 5.7197 585.313 6.58187ZM579.693 9.0172C579.693 9.87937 578.994 10.5783 578.132 10.5783C576.063 10.5017 576.064 7.53234 578.132 7.45609C578.994 7.45609 579.693 8.15503 579.693 9.0172ZM576.384 13.9503C576.384 14.8125 575.685 15.5114 574.822 15.5114C572.754 15.4348 572.754 12.4654 574.822 12.3892C575.685 12.3892 576.384 13.0881 576.384 13.9503ZM575.697 18.259C576.559 18.259 577.258 18.9579 577.258 19.8201C577.181 21.8886 574.212 21.888 574.136 19.8201C574.136 18.9579 574.834 18.259 575.697 18.259Z" fill="#060714"/>
</g>
<path d="M531.449 92V61.184L533.561 62.816H524.297V56.96H538.217V92H531.449ZM550.071 92L563.175 63.2L562.743 62.576H544.983V56.96H570.519V62.144L557.223 92H550.071ZM544.983 68.192V56.96H550.503V68.192H544.983ZM577.761 99.968L572.577 98L577.473 84.08L583.041 86.144L577.761 99.968ZM600.548 92.912C597.796 92.912 595.428 92.368 593.444 91.28C591.492 90.192 589.988 88.752 588.932 86.96C587.908 85.136 587.396 83.152 587.396 81.008H593.972C593.972 82.224 594.244 83.296 594.788 84.224C595.364 85.152 596.148 85.888 597.14 86.432C598.132 86.944 599.284 87.2 600.596 87.2C601.972 87.2 603.156 86.912 604.148 86.336C605.14 85.76 605.892 84.976 606.404 83.984C606.948 82.992 607.22 81.856 607.22 80.576C607.22 79.328 606.948 78.208 606.404 77.216C605.892 76.192 605.14 75.392 604.148 74.816C603.188 74.208 602.02 73.904 600.644 73.904C599.492 73.904 598.404 74.128 597.38 74.576C596.356 75.024 595.556 75.616 594.98 76.352H588.692L590.468 56.96H610.772V62.768H593.444L595.844 60.896L594.692 72.992L593.06 72.512C593.988 71.456 595.124 70.576 596.468 69.872C597.812 69.168 599.508 68.816 601.556 68.816C604.148 68.816 606.356 69.344 608.18 70.4C610.004 71.456 611.396 72.864 612.356 74.624C613.316 76.352 613.796 78.24 613.796 80.288V80.912C613.796 82.992 613.284 84.944 612.26 86.768C611.236 88.592 609.732 90.08 607.748 91.232C605.796 92.352 603.396 92.912 600.548 92.912ZM637.838 92L629.102 79.808H625.214L636.302 65.936H643.262L633.038 78.752L633.182 75.392L645.374 92H637.838ZM619.598 92V56.96H626.27V92H619.598Z" fill="#060714"/>
<path d="M560.638 125H559.161L563.433 113.364H564.888L569.161 125H567.683L564.206 115.205H564.115L560.638 125ZM561.183 120.455H567.138V121.705H561.183V120.455ZM570.991 125V116.273H572.287V117.591H572.378C572.537 117.159 572.825 116.809 573.241 116.54C573.658 116.271 574.128 116.136 574.65 116.136C574.749 116.136 574.872 116.138 575.02 116.142C575.167 116.146 575.279 116.152 575.355 116.159V117.523C575.31 117.511 575.205 117.494 575.042 117.472C574.883 117.445 574.715 117.432 574.537 117.432C574.113 117.432 573.734 117.521 573.4 117.699C573.071 117.873 572.81 118.116 572.616 118.426C572.427 118.733 572.332 119.083 572.332 119.477V125H570.991ZM581.487 116.273V117.409H576.964V116.273H581.487ZM578.282 114.182H579.623V122.5C579.623 122.879 579.678 123.163 579.788 123.352C579.902 123.538 580.046 123.663 580.22 123.727C580.398 123.788 580.585 123.818 580.782 123.818C580.93 123.818 581.051 123.811 581.146 123.795C581.241 123.777 581.316 123.761 581.373 123.75L581.646 124.955C581.555 124.989 581.428 125.023 581.265 125.057C581.102 125.095 580.896 125.114 580.646 125.114C580.267 125.114 579.896 125.032 579.532 124.869C579.172 124.706 578.873 124.458 578.635 124.125C578.4 123.792 578.282 123.371 578.282 122.864V114.182ZM583.704 125V116.273H585.045V125H583.704ZM584.386 114.818C584.124 114.818 583.899 114.729 583.71 114.551C583.524 114.373 583.431 114.159 583.431 113.909C583.431 113.659 583.524 113.445 583.71 113.267C583.899 113.089 584.124 113 584.386 113C584.647 113 584.871 113.089 585.056 113.267C585.246 113.445 585.34 113.659 585.34 113.909C585.34 114.159 585.246 114.373 585.056 114.551C584.871 114.729 584.647 114.818 584.386 114.818ZM593.883 118.227L592.678 118.568C592.602 118.367 592.49 118.172 592.343 117.983C592.199 117.79 592.002 117.631 591.752 117.506C591.502 117.381 591.182 117.318 590.792 117.318C590.258 117.318 589.812 117.441 589.456 117.688C589.104 117.93 588.928 118.239 588.928 118.614C588.928 118.947 589.049 119.21 589.292 119.403C589.534 119.597 589.913 119.758 590.428 119.886L591.723 120.205C592.504 120.394 593.085 120.684 593.468 121.074C593.85 121.46 594.042 121.958 594.042 122.568C594.042 123.068 593.898 123.515 593.61 123.909C593.326 124.303 592.928 124.614 592.417 124.841C591.905 125.068 591.311 125.182 590.633 125.182C589.742 125.182 589.006 124.989 588.422 124.602C587.839 124.216 587.47 123.652 587.314 122.909L588.587 122.591C588.708 123.061 588.937 123.413 589.275 123.648C589.615 123.883 590.061 124 590.61 124C591.235 124 591.731 123.867 592.098 123.602C592.47 123.333 592.655 123.011 592.655 122.636C592.655 122.333 592.549 122.08 592.337 121.875C592.125 121.667 591.799 121.511 591.36 121.409L589.905 121.068C589.106 120.879 588.519 120.585 588.144 120.188C587.773 119.786 587.587 119.284 587.587 118.682C587.587 118.189 587.725 117.754 588.002 117.375C588.282 116.996 588.663 116.699 589.144 116.483C589.629 116.267 590.178 116.159 590.792 116.159C591.655 116.159 592.333 116.348 592.826 116.727C593.322 117.106 593.674 117.606 593.883 118.227ZM600.056 116.273V117.409H595.533V116.273H600.056ZM596.851 114.182H598.192V122.5C598.192 122.879 598.247 123.163 598.357 123.352C598.47 123.538 598.614 123.663 598.788 123.727C598.967 123.788 599.154 123.818 599.351 123.818C599.499 123.818 599.62 123.811 599.715 123.795C599.809 123.777 599.885 123.761 599.942 123.75L600.215 124.955C600.124 124.989 599.997 125.023 599.834 125.057C599.671 125.095 599.465 125.114 599.215 125.114C598.836 125.114 598.465 125.032 598.101 124.869C597.741 124.706 597.442 124.458 597.203 124.125C596.968 123.792 596.851 123.371 596.851 122.864V114.182ZM608.298 118.227L607.094 118.568C607.018 118.367 606.906 118.172 606.758 117.983C606.614 117.79 606.417 117.631 606.167 117.506C605.917 117.381 605.597 117.318 605.207 117.318C604.673 117.318 604.228 117.441 603.872 117.688C603.52 117.93 603.344 118.239 603.344 118.614C603.344 118.947 603.465 119.21 603.707 119.403C603.95 119.597 604.328 119.758 604.844 119.886L606.139 120.205C606.919 120.394 607.501 120.684 607.883 121.074C608.266 121.46 608.457 121.958 608.457 122.568C608.457 123.068 608.313 123.515 608.025 123.909C607.741 124.303 607.344 124.614 606.832 124.841C606.321 125.068 605.726 125.182 605.048 125.182C604.158 125.182 603.421 124.989 602.838 124.602C602.255 124.216 601.885 123.652 601.73 122.909L603.003 122.591C603.124 123.061 603.353 123.413 603.69 123.648C604.031 123.883 604.476 124 605.025 124C605.65 124 606.147 123.867 606.514 123.602C606.885 123.333 607.071 123.011 607.071 122.636C607.071 122.333 606.965 122.08 606.753 121.875C606.541 121.667 606.215 121.511 605.775 121.409L604.321 121.068C603.522 120.879 602.935 120.585 602.56 120.188C602.188 119.786 602.003 119.284 602.003 118.682C602.003 118.189 602.141 117.754 602.417 117.375C602.698 116.996 603.078 116.699 603.56 116.483C604.044 116.267 604.594 116.159 605.207 116.159C606.071 116.159 606.749 116.348 607.241 116.727C607.738 117.106 608.09 117.606 608.298 118.227Z" fill="#7780A1"/>
<g clip-path="url(#clip2_4_2806)">
<path d="M347 25.75C347 25.0596 346.44 24.5 345.75 24.5H338.25C337.56 24.5 337 25.0596 337 25.75C337 26.4404 337.56 27 338.25 27H345.75C346.44 27 347 26.4404 347 25.75Z" fill="#060714"/>
<path d="M357.75 7.5C358.44 7.5 359 6.94036 359 6.25C359 5.55964 358.44 5 357.75 5C357.06 5 356.5 5.55964 356.5 6.25C356.5 6.94036 357.06 7.5 357.75 7.5Z" fill="#060714"/>
<path d="M335.75 17.5H340.75C342.818 17.5 344.5 15.8177 344.5 13.75V3.75C344.5 1.68225 342.818 0 340.75 0H335.75C333.682 0 332 1.68225 332 3.75V13.75C332 15.8177 333.682 17.5 335.75 17.5ZM334.5 3.75C334.5 3.06075 335.061 2.5 335.75 2.5H340.75C341.439 2.5 342 3.06075 342 3.75V13.75C342 14.4392 341.439 15 340.75 15H335.75C335.061 15 334.5 14.4392 334.5 13.75V3.75Z" fill="#060714"/>
<path d="M360.25 0H350.25C348.182 0 346.5 1.68225 346.5 3.75V13.75C346.5 15.8177 348.182 17.5 350.25 17.5H360.25C362.318 17.5 364 15.8177 364 13.75V3.75C364 1.68225 362.318 0 360.25 0ZM361.5 13.75C361.5 14.4392 360.939 15 360.25 15H350.25C349.561 15 349 14.4392 349 13.75V12.0226L352.191 10.4271C352.541 10.252 352.959 10.252 353.309 10.4271L357.191 12.3681C357.81 12.6774 358.56 12.4251 358.868 11.8091C359.177 11.1916 358.927 10.4408 358.309 10.132L354.427 8.191C353.377 7.666 352.123 7.666 351.073 8.191L349 9.22744V3.75C349 3.06075 349.561 2.5 350.25 2.5H360.25C360.939 2.5 361.5 3.06075 361.5 3.75V13.75Z" fill="#060714"/>
<path d="M335.75 32H348.25C350.318 32 352 30.3177 352 28.25V23.25C352 21.1823 350.318 19.5 348.25 19.5H335.75C333.682 19.5 332 21.1823 332 23.25V28.25C332 30.3177 333.682 32 335.75 32ZM334.5 23.25C334.5 22.5608 335.061 22 335.75 22H348.25C348.939 22 349.5 22.5608 349.5 23.25V28.25C349.5 28.9392 348.939 29.5 348.25 29.5H335.75C335.061 29.5 334.5 28.9392 334.5 28.25V23.25Z" fill="#060714"/>
<path d="M360.25 19.5H357.75C355.682 19.5 354 21.1823 354 23.25V28.25C354 30.3177 355.682 32 357.75 32H360.25C362.318 32 364 30.3177 364 28.25V23.25C364 21.1823 362.318 19.5 360.25 19.5ZM361.5 28.25C361.5 28.9392 360.939 29.5 360.25 29.5H357.75C357.061 29.5 356.5 28.9392 356.5 28.25V23.25C356.5 22.5608 357.061 22 357.75 22H360.25C360.939 22 361.5 22.5608 361.5 23.25V28.25Z" fill="#060714"/>
<path d="M338.25 12.5C338.94 12.5 339.5 11.9404 339.5 11.25V6.25C339.5 5.55963 338.94 5 338.25 5C337.56 5 337 5.55963 337 6.25V11.25C337 11.9404 337.56 12.5 338.25 12.5Z" fill="#060714"/>
</g>
<path d="M296.237 92.912C293.485 92.912 291.117 92.368 289.133 91.28C287.181 90.192 285.677 88.752 284.621 86.96C283.597 85.136 283.085 83.152 283.085 81.008H289.661C289.661 82.224 289.933 83.296 290.477 84.224C291.053 85.152 291.837 85.888 292.829 86.432C293.821 86.944 294.973 87.2 296.285 87.2C297.661 87.2 298.845 86.912 299.837 86.336C300.829 85.76 301.581 84.976 302.093 83.984C302.637 82.992 302.909 81.856 302.909 80.576C302.909 79.328 302.637 78.208 302.093 77.216C301.581 76.192 300.829 75.392 299.837 74.816C298.877 74.208 297.709 73.904 296.333 73.904C295.181 73.904 294.093 74.128 293.069 74.576C292.045 75.024 291.245 75.616 290.669 76.352H284.381L286.157 56.96H306.461V62.768H289.133L291.533 60.896L290.381 72.992L288.749 72.512C289.677 71.456 290.813 70.576 292.157 69.872C293.501 69.168 295.197 68.816 297.245 68.816C299.837 68.816 302.045 69.344 303.869 70.4C305.693 71.456 307.085 72.864 308.045 74.624C309.005 76.352 309.485 78.24 309.485 80.288V80.912C309.485 82.992 308.973 84.944 307.949 86.768C306.925 88.592 305.421 90.08 303.437 91.232C301.485 92.352 299.085 92.912 296.237 92.912ZM314.615 92V85.28C314.615 83.808 314.839 82.528 315.287 81.44C315.767 80.352 316.535 79.392 317.591 78.56C318.679 77.696 320.103 76.88 321.863 76.112L327.815 73.472C329.287 72.8 330.407 71.984 331.175 71.024C331.975 70.032 332.375 68.768 332.375 67.232C332.375 65.536 331.863 64.192 330.839 63.2C329.847 62.176 328.423 61.664 326.567 61.664C324.711 61.664 323.271 62.176 322.247 63.2C321.255 64.224 320.759 65.648 320.759 67.472H314.183C314.183 65.296 314.647 63.344 315.575 61.616C316.503 59.856 317.879 58.48 319.703 57.488C321.527 56.464 323.815 55.952 326.567 55.952C329.319 55.952 331.607 56.448 333.431 57.44C335.255 58.432 336.631 59.76 337.559 61.424C338.487 63.056 338.951 64.88 338.951 66.896V67.52C338.951 70.144 338.215 72.336 336.743 74.096C335.271 75.824 333.111 77.328 330.263 78.608L324.311 81.248C323.191 81.728 322.407 82.24 321.959 82.784C321.511 83.296 321.287 84 321.287 84.896V87.968L319.655 86.192H339.095V92H314.615ZM347.597 99.968L342.413 98L347.309 84.08L352.877 86.144L347.597 99.968ZM370.384 92.912C367.632 92.912 365.264 92.368 363.28 91.28C361.328 90.192 359.824 88.752 358.768 86.96C357.744 85.136 357.232 83.152 357.232 81.008H363.808C363.808 82.224 364.08 83.296 364.624 84.224C365.2 85.152 365.984 85.888 366.976 86.432C367.968 86.944 369.12 87.2 370.432 87.2C371.808 87.2 372.992 86.912 373.984 86.336C374.976 85.76 375.728 84.976 376.24 83.984C376.784 82.992 377.056 81.856 377.056 80.576C377.056 79.328 376.784 78.208 376.24 77.216C375.728 76.192 374.976 75.392 373.984 74.816C373.024 74.208 371.856 73.904 370.48 73.904C369.328 73.904 368.24 74.128 367.216 74.576C366.192 75.024 365.392 75.616 364.816 76.352H358.528L360.304 56.96H380.608V62.768H363.28L365.68 60.896L364.528 72.992L362.896 72.512C363.824 71.456 364.96 70.576 366.304 69.872C367.648 69.168 369.344 68.816 371.392 68.816C373.984 68.816 376.192 69.344 378.016 70.4C379.84 71.456 381.232 72.864 382.192 74.624C383.152 76.352 383.632 78.24 383.632 80.288V80.912C383.632 82.992 383.12 84.944 382.096 86.768C381.072 88.592 379.568 90.08 377.584 91.232C375.632 92.352 373.232 92.912 370.384 92.912ZM407.674 92L398.938 79.808H395.05L406.138 65.936H413.098L402.874 78.752L403.018 75.392L415.21 92H407.674ZM389.434 92V56.96H396.106V92H389.434Z" fill="#060714"/>
<path d="M314.991 125H313.514L317.787 113.364H319.241L323.514 125H322.037L318.559 115.205H318.468L314.991 125ZM315.537 120.455H321.491V121.705H315.537V120.455ZM325.344 125V116.273H326.64V117.591H326.731C326.89 117.159 327.178 116.809 327.594 116.54C328.011 116.271 328.481 116.136 329.004 116.136C329.102 116.136 329.225 116.138 329.373 116.142C329.521 116.146 329.632 116.152 329.708 116.159V117.523C329.663 117.511 329.558 117.494 329.396 117.472C329.237 117.445 329.068 117.432 328.89 117.432C328.466 117.432 328.087 117.521 327.754 117.699C327.424 117.873 327.163 118.116 326.969 118.426C326.78 118.733 326.685 119.083 326.685 119.477V125H325.344ZM335.84 116.273V117.409H331.317V116.273H335.84ZM332.635 114.182H333.976V122.5C333.976 122.879 334.031 123.163 334.141 123.352C334.255 123.538 334.399 123.663 334.573 123.727C334.751 123.788 334.938 123.818 335.135 123.818C335.283 123.818 335.404 123.811 335.499 123.795C335.594 123.777 335.669 123.761 335.726 123.75L335.999 124.955C335.908 124.989 335.781 125.023 335.618 125.057C335.455 125.095 335.249 125.114 334.999 125.114C334.62 125.114 334.249 125.032 333.885 124.869C333.526 124.706 333.226 124.458 332.988 124.125C332.753 123.792 332.635 123.371 332.635 122.864V114.182ZM340.034 125L337.375 116.273H338.784L340.671 122.955H340.762L342.625 116.273H344.057L345.898 122.932H345.989L347.875 116.273H349.284L346.625 125H345.307L343.398 118.295H343.262L341.352 125H340.034ZM354.506 125.182C353.718 125.182 353.026 124.994 352.432 124.619C351.841 124.244 351.379 123.72 351.045 123.045C350.716 122.371 350.551 121.583 350.551 120.682C350.551 119.773 350.716 118.979 351.045 118.301C351.379 117.623 351.841 117.097 352.432 116.722C353.026 116.347 353.718 116.159 354.506 116.159C355.293 116.159 355.983 116.347 356.574 116.722C357.168 117.097 357.631 117.623 357.96 118.301C358.293 118.979 358.46 119.773 358.46 120.682C358.46 121.583 358.293 122.371 357.96 123.045C357.631 123.72 357.168 124.244 356.574 124.619C355.983 124.994 355.293 125.182 354.506 125.182ZM354.506 123.977C355.104 123.977 355.596 123.824 355.983 123.517C356.369 123.21 356.655 122.807 356.841 122.307C357.026 121.807 357.119 121.265 357.119 120.682C357.119 120.098 357.026 119.555 356.841 119.051C356.655 118.547 356.369 118.14 355.983 117.83C355.596 117.519 355.104 117.364 354.506 117.364C353.907 117.364 353.415 117.519 353.028 117.83C352.642 118.14 352.356 118.547 352.17 119.051C351.985 119.555 351.892 120.098 351.892 120.682C351.892 121.265 351.985 121.807 352.17 122.307C352.356 122.807 352.642 123.21 353.028 123.517C353.415 123.824 353.907 123.977 354.506 123.977ZM360.707 125V116.273H362.002V117.591H362.093C362.252 117.159 362.54 116.809 362.957 116.54C363.374 116.271 363.843 116.136 364.366 116.136C364.465 116.136 364.588 116.138 364.735 116.142C364.883 116.146 364.995 116.152 365.071 116.159V117.523C365.025 117.511 364.921 117.494 364.758 117.472C364.599 117.445 364.43 117.432 364.252 117.432C363.828 117.432 363.449 117.521 363.116 117.699C362.787 117.873 362.525 118.116 362.332 118.426C362.143 118.733 362.048 119.083 362.048 119.477V125H360.707ZM368.11 121.818L368.087 120.159H368.36L372.178 116.273H373.837L369.769 120.386H369.656L368.11 121.818ZM366.86 125V113.364H368.201V125H366.86ZM372.406 125L368.996 120.682L369.951 119.75L374.11 125H372.406ZM381.945 118.227L380.74 118.568C380.665 118.367 380.553 118.172 380.405 117.983C380.261 117.79 380.064 117.631 379.814 117.506C379.564 117.381 379.244 117.318 378.854 117.318C378.32 117.318 377.875 117.441 377.519 117.688C377.167 117.93 376.99 118.239 376.99 118.614C376.99 118.947 377.112 119.21 377.354 119.403C377.597 119.597 377.975 119.758 378.49 119.886L379.786 120.205C380.566 120.394 381.148 120.684 381.53 121.074C381.913 121.46 382.104 121.958 382.104 122.568C382.104 123.068 381.96 123.515 381.672 123.909C381.388 124.303 380.99 124.614 380.479 124.841C379.968 125.068 379.373 125.182 378.695 125.182C377.805 125.182 377.068 124.989 376.485 124.602C375.901 124.216 375.532 123.652 375.377 122.909L376.65 122.591C376.771 123.061 377 123.413 377.337 123.648C377.678 123.883 378.123 124 378.672 124C379.297 124 379.794 123.867 380.161 123.602C380.532 123.333 380.718 123.011 380.718 122.636C380.718 122.333 380.612 122.08 380.4 121.875C380.187 121.667 379.862 121.511 379.422 121.409L377.968 121.068C377.169 120.879 376.581 120.585 376.206 120.188C375.835 119.786 375.65 119.284 375.65 118.682C375.65 118.189 375.788 117.754 376.064 117.375C376.345 116.996 376.725 116.699 377.206 116.483C377.691 116.267 378.24 116.159 378.854 116.159C379.718 116.159 380.396 116.348 380.888 116.727C381.384 117.106 381.737 117.606 381.945 118.227Z" fill="#7780A1"/>
<g clip-path="url(#clip3_4_2806)">
<path d="M112 32C107.726 32 103.708 30.3357 100.686 27.3137C97.6643 24.2917 96 20.2738 96 16C96 11.7262 97.6643 7.70831 100.686 4.68625C103.708 1.66431 107.726 0 112 0C116.274 0 120.292 1.66431 123.314 4.68625C126.336 7.70831 128 11.7262 128 16C128 20.2738 126.336 24.2917 123.314 27.3137C120.292 30.3357 116.274 32 112 32ZM112 2.5C104.556 2.5 98.5 8.55606 98.5 16C98.5 23.4439 104.556 29.5 112 29.5C119.444 29.5 125.5 23.4439 125.5 16C125.5 8.55606 119.444 2.5 112 2.5ZM111.938 17.1875C108.629 17.1875 105.938 14.4959 105.938 11.1875C105.938 7.87906 108.629 5.1875 111.938 5.1875C115.246 5.1875 117.938 7.87906 117.938 11.1875C117.938 14.4959 115.246 17.1875 111.938 17.1875ZM111.938 7.6875C110.008 7.6875 108.438 9.25762 108.438 11.1875C108.438 13.1174 110.008 14.6875 111.938 14.6875C113.867 14.6875 115.438 13.1174 115.438 11.1875C115.438 9.25762 113.867 7.6875 111.938 7.6875ZM119.857 24.467C120.391 24.0296 120.469 23.242 120.032 22.7079C118.264 20.5501 115.653 19.3125 112.867 19.3125H111.383C108.597 19.3125 105.986 20.5501 104.218 22.7079C103.781 23.242 103.859 24.0296 104.393 24.4671C104.927 24.9046 105.715 24.8261 106.152 24.2921C107.443 22.7163 109.35 21.8125 111.383 21.8125H112.867C114.9 21.8125 116.807 22.7162 118.098 24.2921C118.345 24.5938 118.704 24.75 119.066 24.75C119.344 24.75 119.625 24.6573 119.857 24.467Z" fill="#060714"/>
</g>
<path d="M60.2708 92.912C57.5828 92.912 55.2628 92.4 53.3108 91.376C51.3908 90.352 49.9188 88.992 48.8948 87.296C47.8708 85.568 47.3588 83.648 47.3588 81.536H53.9348C53.9348 83.232 54.4948 84.608 55.6148 85.664C56.7668 86.688 58.3188 87.2 60.2708 87.2C61.5828 87.2 62.7028 86.96 63.6308 86.48C64.5908 85.968 65.3268 85.28 65.8388 84.416C66.3508 83.52 66.6068 82.496 66.6068 81.344C66.6068 79.616 66.0468 78.208 64.9268 77.12C63.8068 76 62.2708 75.44 60.3188 75.44C59.3588 75.44 58.5108 75.568 57.7748 75.824C57.0708 76.08 56.4468 76.416 55.9028 76.832L52.7828 71.456L64.3028 63.584L63.8708 62.768H48.7988V56.96H71.6948V63.968L59.8388 71.84L56.1428 71.168C56.7508 70.976 57.4068 70.832 58.1108 70.736C58.8148 70.608 59.5828 70.544 60.4148 70.544C63.0708 70.544 65.3428 71.008 67.2308 71.936C69.1508 72.832 70.6228 74.08 71.6468 75.68C72.6708 77.28 73.1828 79.12 73.1828 81.2V81.824C73.1828 83.84 72.6708 85.696 71.6468 87.392C70.6228 89.056 69.1508 90.4 67.2308 91.424C65.3108 92.416 62.9908 92.912 60.2708 92.912ZM94.0217 92.912C91.2697 92.912 88.9337 92.464 87.0137 91.568C85.0937 90.64 83.5257 89.392 82.3097 87.824C81.0937 86.224 80.1977 84.4 79.6217 82.352C79.0777 80.272 78.8057 78.096 78.8057 75.824V73.136C78.8057 69.904 79.3497 66.992 80.4377 64.4C81.5257 61.808 83.1897 59.76 85.4297 58.256C87.6697 56.72 90.5337 55.952 94.0217 55.952C97.4777 55.952 100.326 56.72 102.566 58.256C104.806 59.76 106.454 61.808 107.51 64.4C108.598 66.992 109.142 69.904 109.142 73.136V75.824C109.142 78.096 108.854 80.272 108.278 82.352C107.734 84.4 106.854 86.224 105.638 87.824C104.454 89.392 102.902 90.64 100.982 91.568C99.0617 92.464 96.7417 92.912 94.0217 92.912ZM94.0217 86.672C96.8697 86.672 98.9657 85.696 100.31 83.744C101.654 81.76 102.326 78.688 102.326 74.528C102.326 70.112 101.638 66.96 100.262 65.072C98.8857 63.152 96.8057 62.192 94.0217 62.192C91.2057 62.192 89.0937 63.152 87.6857 65.072C86.3097 66.96 85.6217 70.08 85.6217 74.432C85.6217 78.624 86.3097 81.712 87.6857 83.696C89.0617 85.68 91.1737 86.672 94.0217 86.672ZM130.503 92.912C127.751 92.912 125.415 92.464 123.495 91.568C121.575 90.64 120.007 89.392 118.791 87.824C117.575 86.224 116.679 84.4 116.103 82.352C115.559 80.272 115.287 78.096 115.287 75.824V73.136C115.287 69.904 115.831 66.992 116.919 64.4C118.007 61.808 119.671 59.76 121.911 58.256C124.151 56.72 127.015 55.952 130.503 55.952C133.959 55.952 136.807 56.72 139.047 58.256C141.287 59.76 142.935 61.808 143.991 64.4C145.079 66.992 145.623 69.904 145.623 73.136V75.824C145.623 78.096 145.335 80.272 144.759 82.352C144.215 84.4 143.335 86.224 142.119 87.824C140.935 89.392 139.383 90.64 137.463 91.568C135.543 92.464 133.223 92.912 130.503 92.912ZM130.503 86.672C133.351 86.672 135.447 85.696 136.791 83.744C138.135 81.76 138.807 78.688 138.807 74.528C138.807 70.112 138.119 66.96 136.743 65.072C135.367 63.152 133.287 62.192 130.503 62.192C127.687 62.192 125.575 63.152 124.167 65.072C122.791 66.96 122.103 70.08 122.103 74.432C122.103 78.624 122.791 81.712 124.167 83.696C125.543 85.68 127.655 86.672 130.503 86.672ZM170.824 92L162.088 79.808H158.2L169.288 65.936H176.248L166.024 78.752L166.168 75.392L178.36 92H170.824ZM152.584 92V56.96H159.256V92H152.584Z" fill="#060714"/>
<path d="M72.1408 113.364H73.5499V121.068C73.5499 121.864 73.3624 122.574 72.9874 123.199C72.6161 123.82 72.0915 124.311 71.4135 124.67C70.7355 125.027 69.94 125.205 69.0271 125.205C68.1143 125.205 67.3188 125.027 66.6408 124.67C65.9627 124.311 65.4362 123.82 65.0612 123.199C64.69 122.574 64.5044 121.864 64.5044 121.068V113.364H65.9135V120.955C65.9135 121.523 66.0385 122.028 66.2885 122.472C66.5385 122.911 66.8946 123.258 67.3567 123.511C67.8226 123.761 68.3794 123.886 69.0271 123.886C69.6749 123.886 70.2317 123.761 70.6976 123.511C71.1635 123.258 71.5196 122.911 71.7658 122.472C72.0158 122.028 72.1408 121.523 72.1408 120.955V113.364ZM82.5638 118.227L81.3592 118.568C81.2835 118.367 81.1717 118.172 81.024 117.983C80.8801 117.79 80.6831 117.631 80.4331 117.506C80.1831 117.381 79.863 117.318 79.4729 117.318C78.9388 117.318 78.4937 117.441 78.1376 117.688C77.7854 117.93 77.6092 118.239 77.6092 118.614C77.6092 118.947 77.7304 119.21 77.9729 119.403C78.2153 119.597 78.5941 119.758 79.1092 119.886L80.4047 120.205C81.185 120.394 81.7664 120.684 82.149 121.074C82.5316 121.46 82.7229 121.958 82.7229 122.568C82.7229 123.068 82.5789 123.515 82.291 123.909C82.007 124.303 81.6092 124.614 81.0979 124.841C80.5865 125.068 79.9918 125.182 79.3138 125.182C78.4236 125.182 77.6869 124.989 77.1035 124.602C76.5202 124.216 76.1509 123.652 75.9956 122.909L77.2683 122.591C77.3895 123.061 77.6187 123.413 77.9558 123.648C78.2967 123.883 78.7418 124 79.291 124C79.916 124 80.4123 123.867 80.7797 123.602C81.1509 123.333 81.3365 123.011 81.3365 122.636C81.3365 122.333 81.2304 122.08 81.0183 121.875C80.8062 121.667 80.4804 121.511 80.041 121.409L78.5865 121.068C77.7873 120.879 77.2001 120.585 76.8251 120.188C76.4539 119.786 76.2683 119.284 76.2683 118.682C76.2683 118.189 76.4066 117.754 76.6831 117.375C76.9634 116.996 77.3441 116.699 77.8251 116.483C78.31 116.267 78.8592 116.159 79.4729 116.159C80.3365 116.159 81.0145 116.348 81.507 116.727C82.0032 117.106 82.3554 117.606 82.5638 118.227ZM88.6004 125.182C87.7595 125.182 87.0341 124.996 86.4243 124.625C85.8182 124.25 85.3504 123.727 85.0209 123.057C84.6951 122.383 84.5322 121.598 84.5322 120.705C84.5322 119.811 84.6951 119.023 85.0209 118.341C85.3504 117.655 85.8088 117.121 86.3959 116.739C86.9868 116.352 87.6762 116.159 88.4641 116.159C88.9186 116.159 89.3675 116.235 89.8107 116.386C90.2538 116.538 90.6572 116.784 91.0209 117.125C91.3845 117.462 91.6743 117.909 91.8902 118.466C92.1061 119.023 92.2141 119.708 92.2141 120.523V121.091H85.4868V119.932H90.8504C90.8504 119.439 90.7519 119 90.555 118.614C90.3618 118.227 90.0853 117.922 89.7254 117.699C89.3694 117.475 88.9489 117.364 88.4641 117.364C87.93 117.364 87.4679 117.496 87.0777 117.761C86.6913 118.023 86.394 118.364 86.1857 118.784C85.9773 119.205 85.8732 119.655 85.8732 120.136V120.909C85.8732 121.568 85.9868 122.127 86.2141 122.585C86.4451 123.04 86.7652 123.386 87.1743 123.625C87.5834 123.86 88.0588 123.977 88.6004 123.977C88.9527 123.977 89.2709 123.928 89.555 123.83C89.8429 123.727 90.091 123.576 90.2993 123.375C90.5076 123.17 90.6686 122.917 90.7822 122.614L92.0777 122.977C91.9413 123.417 91.7122 123.803 91.3902 124.136C91.0682 124.466 90.6705 124.723 90.197 124.909C89.7235 125.091 89.1913 125.182 88.6004 125.182ZM94.4538 125V116.273H95.7493V117.591H95.8402C95.9993 117.159 96.2872 116.809 96.7038 116.54C97.1205 116.271 97.5902 116.136 98.1129 116.136C98.2114 116.136 98.3345 116.138 98.4822 116.142C98.63 116.146 98.7417 116.152 98.8175 116.159V117.523C98.772 117.511 98.6679 117.494 98.505 117.472C98.3459 117.445 98.1773 117.432 97.9993 117.432C97.575 117.432 97.1963 117.521 96.8629 117.699C96.5334 117.873 96.272 118.116 96.0788 118.426C95.8894 118.733 95.7947 119.083 95.7947 119.477V125H94.4538ZM106.789 118.227L105.584 118.568C105.508 118.367 105.397 118.172 105.249 117.983C105.105 117.79 104.908 117.631 104.658 117.506C104.408 117.381 104.088 117.318 103.698 117.318C103.164 117.318 102.719 117.441 102.363 117.688C102.01 117.93 101.834 118.239 101.834 118.614C101.834 118.947 101.955 119.21 102.198 119.403C102.44 119.597 102.819 119.758 103.334 119.886L104.63 120.205C105.41 120.394 105.991 120.684 106.374 121.074C106.757 121.46 106.948 121.958 106.948 122.568C106.948 123.068 106.804 123.515 106.516 123.909C106.232 124.303 105.834 124.614 105.323 124.841C104.812 125.068 104.217 125.182 103.539 125.182C102.649 125.182 101.912 124.989 101.329 124.602C100.745 124.216 100.376 123.652 100.221 122.909L101.493 122.591C101.615 123.061 101.844 123.413 102.181 123.648C102.522 123.883 102.967 124 103.516 124C104.141 124 104.637 123.867 105.005 123.602C105.376 123.333 105.562 123.011 105.562 122.636C105.562 122.333 105.455 122.08 105.243 121.875C105.031 121.667 104.705 121.511 104.266 121.409L102.812 121.068C102.012 120.879 101.425 120.585 101.05 120.188C100.679 119.786 100.493 119.284 100.493 118.682C100.493 118.189 100.632 117.754 100.908 117.375C101.188 116.996 101.569 116.699 102.05 116.483C102.535 116.267 103.084 116.159 103.698 116.159C104.562 116.159 105.24 116.348 105.732 116.727C106.228 117.106 106.58 117.606 106.789 118.227ZM114.525 125H113.048L117.321 113.364H118.775L123.048 125H121.571L118.094 115.205H118.003L114.525 125ZM115.071 120.455H121.025V121.705H115.071V120.455ZM128.424 125.182C127.606 125.182 126.902 124.989 126.311 124.602C125.72 124.216 125.265 123.684 124.947 123.006C124.629 122.328 124.47 121.553 124.47 120.682C124.47 119.795 124.633 119.013 124.958 118.335C125.288 117.653 125.746 117.121 126.333 116.739C126.924 116.352 127.614 116.159 128.402 116.159C129.015 116.159 129.568 116.273 130.061 116.5C130.553 116.727 130.956 117.045 131.271 117.455C131.585 117.864 131.78 118.341 131.856 118.886H130.515C130.413 118.489 130.186 118.136 129.833 117.83C129.485 117.519 129.015 117.364 128.424 117.364C127.902 117.364 127.443 117.5 127.049 117.773C126.659 118.042 126.354 118.422 126.135 118.915C125.919 119.403 125.811 119.977 125.811 120.636C125.811 121.311 125.917 121.898 126.129 122.398C126.345 122.898 126.648 123.286 127.038 123.562C127.432 123.839 127.894 123.977 128.424 123.977C128.773 123.977 129.089 123.917 129.373 123.795C129.657 123.674 129.898 123.5 130.095 123.273C130.292 123.045 130.432 122.773 130.515 122.455H131.856C131.78 122.97 131.593 123.434 131.294 123.847C130.998 124.256 130.606 124.581 130.117 124.824C129.633 125.062 129.068 125.182 128.424 125.182ZM137.812 116.273V117.409H133.289V116.273H137.812ZM134.607 114.182H135.948V122.5C135.948 122.879 136.003 123.163 136.113 123.352C136.227 123.538 136.371 123.663 136.545 123.727C136.723 123.788 136.91 123.818 137.107 123.818C137.255 123.818 137.376 123.811 137.471 123.795C137.566 123.777 137.641 123.761 137.698 123.75L137.971 124.955C137.88 124.989 137.753 125.023 137.59 125.057C137.427 125.095 137.221 125.114 136.971 125.114C136.592 125.114 136.221 125.032 135.857 124.869C135.497 124.706 135.198 124.458 134.96 124.125C134.725 123.792 134.607 123.371 134.607 122.864V114.182ZM140.029 125V116.273H141.37V125H140.029ZM140.711 114.818C140.449 114.818 140.224 114.729 140.035 114.551C139.849 114.373 139.756 114.159 139.756 113.909C139.756 113.659 139.849 113.445 140.035 113.267C140.224 113.089 140.449 113 140.711 113C140.972 113 141.196 113.089 141.381 113.267C141.571 113.445 141.665 113.659 141.665 113.909C141.665 114.159 141.571 114.373 141.381 114.551C141.196 114.729 140.972 114.818 140.711 114.818ZM151.162 116.273L147.935 125H146.571L143.344 116.273H144.798L147.208 123.227H147.298L149.708 116.273H151.162ZM156.479 125.182C155.638 125.182 154.912 124.996 154.302 124.625C153.696 124.25 153.229 123.727 152.899 123.057C152.573 122.383 152.41 121.598 152.41 120.705C152.41 119.811 152.573 119.023 152.899 118.341C153.229 117.655 153.687 117.121 154.274 116.739C154.865 116.352 155.554 116.159 156.342 116.159C156.797 116.159 157.246 116.235 157.689 116.386C158.132 116.538 158.535 116.784 158.899 117.125C159.263 117.462 159.552 117.909 159.768 118.466C159.984 119.023 160.092 119.708 160.092 120.523V121.091H153.365V119.932H158.729C158.729 119.439 158.63 119 158.433 118.614C158.24 118.227 157.963 117.922 157.604 117.699C157.247 117.475 156.827 117.364 156.342 117.364C155.808 117.364 155.346 117.496 154.956 117.761C154.569 118.023 154.272 118.364 154.064 118.784C153.855 119.205 153.751 119.655 153.751 120.136V120.909C153.751 121.568 153.865 122.127 154.092 122.585C154.323 123.04 154.643 123.386 155.052 123.625C155.462 123.86 155.937 123.977 156.479 123.977C156.831 123.977 157.149 123.928 157.433 123.83C157.721 123.727 157.969 123.576 158.177 123.375C158.386 123.17 158.547 122.917 158.66 122.614L159.956 122.977C159.819 123.417 159.59 123.803 159.268 124.136C158.946 124.466 158.549 124.723 158.075 124.909C157.602 125.091 157.069 125.182 156.479 125.182Z" fill="#7780A1"/>
<defs>
<clipPath id="clip0_4_2806">
<rect width="32" height="32" fill="white" transform="translate(804)"/>
</clipPath>
<clipPath id="clip1_4_2806">
<rect width="32" height="32" fill="white" transform="translate(568)"/>
</clipPath>
<clipPath id="clip2_4_2806">
<rect width="32" height="32" fill="white" transform="translate(332)"/>
</clipPath>
<clipPath id="clip3_4_2806">
<rect width="32" height="32" fill="white" transform="translate(96)"/>
</clipPath>
</defs>
</svg>
