<svg width="670" height="45" viewBox="0 0 670 45" fill="none" xmlns="http://www.w3.org/2000/svg">
<g clip-path="url(#clip0_4_2560)">
<path fill-rule="evenodd" clip-rule="evenodd" d="M72.0424 18.0856C71.4836 14.8773 67.3438 14.5666 64.6526 15.0632C61.961 15.5597 58.6497 16.9878 55.2758 18.5613C53.9812 19.165 52.4826 19.9606 51.0381 20.7542C49.9071 20.5547 48.8069 20.4035 47.8641 20.4035C45.6082 20.4035 43.7041 21.2111 42.6894 21.6248C41.6754 22.0389 41.3643 22.3904 41.4475 22.5981C41.5303 22.8051 42.1097 22.7011 43.0617 22.3698C44.0141 22.0389 44.8217 21.6864 46.9739 21.4592C47.7073 21.3815 48.5769 21.4459 49.5378 21.5865C47.8182 22.5475 46.3234 23.3989 45.5674 23.7568C43.9946 24.5019 41.802 25.8269 37.8272 25.9717C33.8523 26.1164 32.673 24.3985 31.3692 22.7425C30.065 21.0862 28.8025 17.8584 27.5398 15.519C26.277 13.1799 23.4831 11.7313 23.4831 11.7313C26.6089 11.0069 29.3819 8.99906 29.7132 5.915C30.0444 2.83059 28.0579 0.492218 24.3527 0.0777929C20.6475 -0.33629 17.4601 0.968243 15.3486 2.43772C13.2371 3.90721 11.9538 6.557 12.3679 8.23352C12.7816 9.91039 14.0027 10.2002 14.9345 9.93092C15.8664 9.66159 16.2592 8.62673 16.135 8.23352C16.0108 7.84031 15.5348 7.302 15.1001 7.46764C14.6652 7.63327 14.4585 7.52992 14.4585 7.52992C13.3822 6.39136 14.21 4.05231 16.5286 2.72758C18.6168 1.53427 20.4548 1.36966 22.4927 1.66534C21.7116 2.04007 20.9623 2.47785 20.2522 2.97432C18.6168 4.11288 17.5614 6.34824 17.2921 9.16367C17.0227 11.9791 17.1261 13.2829 16.9399 17.0504C16.7541 20.8179 16.5676 23.1768 15.8845 23.9844C15.2014 24.7917 13.8562 25.4327 13.1937 25.8471C12.5311 26.2615 12.6348 26.9025 13.6077 26.7167C14.5803 26.5309 15.7196 25.8478 16.7955 25.33C17.8718 24.8126 18.9689 24.5227 20.77 24.5019C22.5711 24.4806 22.5085 24.5429 22.6122 24.2117C22.7159 23.8804 22.4879 23.8181 21.8877 23.3212C21.2874 22.8243 21.0807 22.5344 21.1221 21.2925C21.1512 20.413 21.1389 15.6894 21.1293 12.3764C22.4589 12.7207 22.9448 14.4814 23.336 15.9105C23.7497 17.4217 24.3503 19.8645 25.3232 21.6443C27.0778 24.8557 28.883 27.1506 32.4639 28.2683C36.0449 29.3863 39.1498 28.2683 42.1925 27.1096C44.9795 26.048 48.6149 23.7202 51.4655 21.9359C52.871 22.2312 54.411 22.6101 56.0413 22.9691C59.7048 23.7757 62.8929 23.9629 65.1488 23.7346C67.4043 23.5081 72.6012 21.2939 72.0424 18.0856ZM21.1245 10.8546C21.1228 10.1996 21.1218 9.67768 21.1218 9.37105C21.1218 7.59084 21.1009 4.3408 22.3223 3.18171C23.1505 2.39529 23.5433 2.13589 24.0122 2.00345C25.5758 2.5794 25.8454 3.75834 25.9881 5.17033C26.1538 6.80579 25.3879 8.27561 23.9804 9.55893C22.9975 10.4549 21.7744 10.7546 21.1245 10.8546ZM63.0387 22.246C60.4306 22.4742 57.9868 21.9972 55.6276 21.6248C54.7762 21.49 53.821 21.2936 52.8437 21.0975C55.848 19.3902 60.549 17.6893 63.1009 17.3608C65.8332 17.0093 67.0132 17.8368 66.9718 19.2858C66.9307 20.7347 65.6467 22.018 63.0387 22.246ZM35.5795 10.8474C35.7981 10.9446 35.6951 11.2286 35.6951 11.7262V18.0439C35.6951 18.3919 35.8283 18.5907 36.0935 18.4251C36.3584 18.2595 36.9223 17.8118 37.088 17.8779C37.2539 17.9439 37.6355 18.1106 37.1215 18.9395C36.6075 19.7683 35.6623 20.8963 34.9327 20.9791C34.2031 21.0619 33.1422 20.9791 32.6946 20.4315C32.2466 19.884 32.0642 19.436 32.0642 18.8395V13.401C32.0642 12.953 31.965 12.937 31.6994 12.937C31.4338 12.937 30.9866 12.9198 30.9366 12.655C30.8866 12.3898 30.9859 12.2734 31.4338 12.1078C31.8818 11.9418 34.4022 11.1461 34.8334 11.0134C35.2643 10.8806 35.4303 10.7813 35.5795 10.8474ZM33.4238 8.94054C33.7058 8.16097 33.7722 7.56414 33.7223 7.18291C33.6726 6.80168 33.3578 6.63571 33.3739 6.4865C33.3903 6.33695 33.9543 6.15489 34.6011 5.93929C35.2479 5.7237 35.8611 5.44171 36.2759 5.34247C36.6903 5.24288 36.9391 5.74047 36.3919 7.19968C35.8447 8.65856 34.8002 9.62053 34.2366 9.95214C33.673 10.2837 33.2955 10.422 33.1254 10.1677C33.0255 10.0185 33.1419 9.72011 33.4238 8.94054ZM43.6048 17.8118C42.8916 18.6082 42.0956 19.4203 40.8524 19.1551C39.6087 18.8898 38.9787 17.8782 38.9787 16.7671V11.6105C38.9787 11.0938 39.0225 11.0356 38.7795 10.9511C38.2022 10.9935 37.8244 10.9418 37.8508 10.7485C37.9175 10.2506 38.348 10.2837 38.8788 9.8197C39.4096 9.35565 40.2056 8.50969 40.8192 7.56449C41.4324 6.61962 41.6812 5.34281 41.864 4.81203C42.0464 4.28159 42.1788 4.04923 42.4608 4.14881C42.7428 4.24874 42.6928 4.4308 42.6928 4.97801V8.60791C42.7503 8.70031 42.8246 8.75506 42.9255 8.74206C43.3064 8.69209 43.6722 8.52646 43.8707 8.54288C44.0692 8.55931 44.1359 8.8413 44.1359 9.09009C44.1359 9.3163 44.0904 9.57022 42.6928 10.0613V15.9714C42.6928 16.4361 42.5104 16.7842 42.9748 16.585C43.4392 16.3858 43.8711 15.9717 44.1691 16.0878C44.4672 16.2034 44.318 17.0155 43.6048 17.8118ZM50.8403 15.7305C50.1271 16.5272 49.3311 17.3392 48.0872 17.074C46.8439 16.8081 46.2135 15.7965 46.2135 14.6857V9.5295C46.2135 9.01241 46.2577 8.95423 46.0144 8.8697C45.4374 8.91214 45.0599 8.86012 45.0859 8.66711C45.1527 8.16987 45.5832 8.20238 46.114 7.73833C46.6447 7.27428 47.4407 6.42832 48.0543 5.48346C48.6679 4.53826 48.916 3.26178 49.0991 2.73101C49.2815 2.20057 49.414 1.9682 49.6959 2.06779C49.9779 2.16772 49.928 2.34977 49.928 2.89732V6.52688C49.9855 6.61928 50.0597 6.67438 50.1607 6.66103C50.5416 6.61107 50.9074 6.44578 51.1059 6.4622C51.3044 6.47897 51.3711 6.76027 51.3711 7.00907C51.3711 7.23493 51.3249 7.4892 49.928 7.98062V13.8907C49.928 14.3554 49.7456 14.7035 50.21 14.5047C50.6743 14.3051 51.1062 13.8914 51.4036 14.0071C51.702 14.1224 51.5528 14.9345 50.8403 15.7305ZM60.2492 4.71073C59.4967 4.01021 58.0957 3.24125 56.1988 4.24942C54.3012 5.2576 53.1048 6.52243 52.1989 9.27386C51.2934 12.0256 54.0623 14.3158 54.7115 14.6234C55.361 14.9311 56.3692 15.5121 57.9071 14.4698C59.4457 13.427 60.01 12.3504 60.1805 11.9575C60.3516 11.5643 60.1637 11.0003 59.5823 11.3936C59.0015 11.7868 58.198 12.7611 56.9674 12.385C56.0458 12.1033 55.6707 11.4863 55.4329 10.9357C56.2443 10.4121 58.7716 8.78038 59.6853 8.18082C60.7787 7.46319 60.8817 7.4803 61.0521 7.00154C61.2232 6.52209 61.0011 5.41125 60.2492 4.71073ZM57.7709 7.97515C57.1467 8.66369 56.35 9.26257 55.0304 9.89738C54.8244 9.22869 54.7211 8.23523 55.4808 6.89853C56.4718 5.15527 57.4975 4.62518 57.9246 5.25794C58.3516 5.8907 58.4372 7.24006 57.7709 7.97515ZM62.5732 4.50575C62.3566 4.3976 62.2317 4.4373 61.9583 4.48863C61.6842 4.53997 61.4963 4.33464 61.6503 4.12965C61.8046 3.92466 62.3173 3.54856 62.7953 3.12113C63.2738 2.69405 63.7525 2.30084 64.2994 2.35217C64.8469 2.4035 65.5307 2.45484 66.1628 3.56567C66.1628 3.56567 67.085 2.28373 67.6668 1.95896C67.6668 1.95896 68.521 2.83059 69.0678 3.10436C69.6154 3.37745 69.9395 3.56567 70.4528 3.15535C70.9654 2.74504 71.0678 2.67693 71.2214 2.81348C71.3751 2.95037 71.1872 3.65089 70.384 4.42019C69.5805 5.18915 68.7095 5.8729 67.9402 5.6508C67.1709 5.42871 66.2819 4.77918 66.2819 4.77918V9.75228C66.2819 10.1626 66.4023 10.1797 66.7952 9.99183C67.188 9.80361 67.598 9.42786 67.8205 9.63285C68.0422 9.83818 68.0083 10.4364 67.1025 11.359C66.1966 12.2816 66.0598 12.6067 64.5732 12.6067C63.0859 12.6067 62.6075 10.9829 62.6075 10.5387V4.93318C62.6075 4.59096 62.7105 4.57419 62.5732 4.50575ZM20.1995 33.764L21.6375 30.913C21.6375 30.913 19.7201 29.7275 17.3235 29.7275C14.927 29.7275 13.3374 30.838 12.656 32.8814C11.975 34.9248 12.8833 37.1191 13.8921 37.5989C14.9013 38.0783 16.7178 38.7083 17.5251 39.0618C18.3324 39.4154 18.7615 40.6268 18.1055 41.2322C17.4495 41.8372 15.9608 42.3673 13.5643 40.2983L12 43.1989C12 43.1989 14.094 44.8891 16.6422 44.8891C19.1903 44.8891 21.3343 43.7793 22.0407 41.4331C22.7473 39.0868 21.8897 36.8159 19.6948 36.0592C17.5001 35.3026 16.0365 35.227 16.2134 33.7886C16.39 32.351 18.9378 32.5282 20.1995 33.764ZM33.5956 32.5655C32.8133 30.4965 30.2402 30.1187 29.5845 30.1187H23.2518V44.499H26.9354V39.7815H29.5089C30.4421 39.7815 31.4263 39.7056 32.839 38.5454C34.2517 37.3846 34.3779 34.6346 33.5956 32.5655ZM28.6256 36.8042H26.9354V33.0453H28.1968C29.3319 33.0453 30.1646 33.4991 30.1646 34.9881C30.1646 36.476 29.3323 36.8042 28.6256 36.8042ZM42.5261 29.618C38.1748 29.618 34.6473 33.0614 34.6473 37.309C34.6473 41.5566 38.1748 45 42.5261 45C46.8774 45 50.405 41.5566 50.405 37.309C50.405 33.0614 46.8774 29.618 42.5261 29.618ZM42.5261 41.4276C40.2887 41.4276 38.4757 39.5834 38.4757 37.309C38.4757 35.0346 40.2887 33.1904 42.5261 33.1904C44.7632 33.1904 46.5766 35.0346 46.5766 37.309C46.5766 39.5834 44.7632 41.4276 42.5261 41.4276ZM55.0534 39.1012L58.4748 44.4867H63.0766L58.6768 38.6762C58.6768 38.6762 59.2924 38.6762 60.4546 37.9582C61.6164 37.2402 62.2659 34.8139 61.548 32.7969C60.83 30.7802 58.5395 30.1306 57.2408 30.1306H51.2934V44.4867H55.053L55.0534 39.1012ZM57.1046 33.1726C57.7196 33.3779 58.0957 34.4371 57.9588 35.3604C57.8226 36.2834 56.3866 36.6937 55.9082 36.6937H55.0534V33.0019C55.8271 32.9977 56.5389 32.9844 57.1046 33.1726ZM72.144 30.1306H62.2998V33.1726H65.376V44.4867H69.0675V33.1726H72.144V30.1306Z" fill="#BBC0D0"/>
</g>
<path d="M215.634 23.5053H221.363L229.803 1H224.483L220.693 11.0934L221.346 1H215.686L207.246 23.5053H212.565L216.285 13.5485L215.634 23.5053Z" fill="#BBC0D0"/>
<path d="M230.493 1L222.054 23.5053H227.373L235.813 1H230.493Z" fill="#BBC0D0"/>
<path fill-rule="evenodd" clip-rule="evenodd" d="M206.632 15.748C199.199 24.4775 192.187 36.0928 198.38 41.4415C204.329 46.5793 211.752 43.6092 216.864 41.564L216.999 41.5098C222.114 39.4637 278.65 14.9124 278.65 14.9124C279.196 14.6396 279.094 14.2985 278.411 14.4688C278.296 14.4978 267.341 17.4651 254.706 20.8884L255.334 19.1407H249.128L251.167 13.6851H256.281L257.855 9.49087H252.741L254.494 4.7511H259.881L261.31 1H245.079L239.506 7.75171L242.079 1H236.691L228.319 23.5053H233.638L237.213 14.094L237.458 23.5053L245.11 23.4886C230.61 27.4177 216.863 31.1432 216.863 31.1432C209.087 33.3259 200.222 28.5688 206.632 15.748ZM242.735 22.0047L242.394 10.2751L250.437 1.44444L242.735 22.0047Z" fill="#BBC0D0"/>
<path fill-rule="evenodd" clip-rule="evenodd" d="M420.93 29.2874L418.182 24.7079L415.862 20.8514L406.001 26.7738L407.507 29.2874H420.93ZM443.745 29.2874H457.168L439.573 0L429.722 5.92247L443.745 29.2874ZM439.054 33.877C438.108 33.2668 436.998 32.9103 435.797 32.9103H435.767C432.45 32.9306 429.753 35.6375 429.753 38.955C429.753 42.2728 432.45 44.9794 435.767 45H435.797C436.998 45 438.108 44.6439 439.054 44.0333V44.6642H441.832V29.2877H439.054V33.877ZM439.054 39.5862C438.759 41.1128 437.406 42.2826 435.797 42.2826H435.767C433.945 42.2624 432.47 40.7766 432.47 38.955C432.47 37.1337 433.945 35.648 435.767 35.6375H435.797C437.406 35.6375 438.759 36.7979 439.054 38.3242V39.5862ZM452.1 33.877C451.132 33.245 450 32.9091 448.844 32.9103H448.813C445.496 32.9306 442.799 35.6375 442.799 38.955C442.799 42.2728 445.496 44.9794 448.813 45H448.844C450.045 45 451.164 44.6439 452.1 44.0333V44.6642H454.879V33.2154H452.1V33.877ZM452.1 39.5862C451.805 41.1128 450.451 42.2826 448.844 42.2826H448.813C446.992 42.2624 445.516 40.7766 445.516 38.955C445.516 37.1337 446.992 35.648 448.813 35.6375H448.844C450.451 35.6375 451.805 36.7979 452.1 38.3242V39.5862ZM464.76 38.202C464.658 38.1506 464.515 38.1 464.352 38.0389C463.731 37.8253 462.724 37.5607 461.32 37.2556C460.088 36.9805 459.468 36.6247 459.468 36.1768C459.468 35.8613 459.579 35.6068 459.793 35.4238C460.078 35.1795 460.586 35.0573 461.32 35.0573C462.062 35.0573 462.602 35.2203 462.917 35.5355C463.111 35.7289 463.253 36.0745 463.345 36.5633H466.296C466.296 35.1184 465.706 34.0805 464.546 33.4497C464.484 33.4098 464.42 33.3758 464.352 33.3481C463.548 32.9714 462.48 32.778 461.147 32.778C459.528 32.778 458.307 33.2057 457.494 34.0704C456.843 34.7623 456.527 35.6068 456.527 36.6041C456.527 37.8463 457.137 38.7413 458.379 39.3215C458.847 39.5453 459.987 39.8609 461.799 40.2477C463.01 40.5123 463.619 40.889 463.619 41.3673C463.619 41.6525 463.498 41.8965 463.233 42.1203C462.897 42.4051 462.388 42.5479 461.707 42.5479C460.801 42.5479 460.16 42.3954 459.783 42.1004C459.406 41.8155 459.213 41.3984 459.213 40.8691H456.12C456.12 42.2736 456.71 43.3216 457.9 44.0131C458.847 44.5525 460.089 44.8276 461.626 44.8276C462.653 44.8276 463.569 44.6544 464.353 44.3189C464.516 44.2477 464.658 44.1761 464.811 44.0948C466.022 43.4235 466.632 42.3549 466.632 40.8897C466.632 39.6877 466.011 38.7919 464.76 38.202ZM408.301 33.877C407.328 33.2463 406.194 32.9105 405.035 32.9103H405.004C401.697 32.9306 399 35.6375 399 38.955C399 42.2728 401.697 44.9794 405.004 45H405.035C406.235 45 407.355 44.6439 408.301 44.0333V44.6642H411.079V33.2154H408.301V33.877ZM408.301 39.5862C408.006 41.1128 406.652 42.2826 405.035 42.2826H405.004C403.193 42.2624 401.717 40.7766 401.717 38.955C401.717 37.1337 403.193 35.648 405.004 35.6375H405.035C406.653 35.6375 408.006 36.7979 408.301 38.3242V39.5862ZM425.642 32.0048H428.664V29.3485H425.642V32.0048ZM425.642 44.6638H428.664V32.9103H425.642V44.6638ZM421.48 33.877C420.507 33.2462 419.372 32.9105 418.213 32.9103H418.182C414.865 32.9306 412.168 35.6375 412.168 38.955C412.168 42.2728 414.864 44.9794 418.182 45H418.213C419.372 45 420.507 44.6642 421.48 44.0333V44.6642H424.258V29.2877H421.48V33.877ZM421.48 39.5862C421.185 41.1128 419.831 42.2826 418.213 42.2826H418.182C416.361 42.2624 414.885 40.7766 414.885 38.955C414.885 37.1337 416.361 35.648 418.182 35.6375H418.213C419.831 35.6375 421.184 36.7979 421.48 38.3242V39.5862ZM439.043 29.2874L435.767 23.8128L427.718 10.4206L418.182 16.1602L417.857 16.3532L418.182 16.8926L425.631 29.2874H439.043Z" fill="#BBC0D0"/>
<path fill-rule="evenodd" clip-rule="evenodd" d="M618.027 37.7738H616.96L616.303 43.3578H616.057L615.236 37.7738H613.593L612.854 43.3578H612.69L611.869 37.7738H610.801L611.787 45H613.593L614.414 39.3336H614.496L615.236 45H617.124L618.027 37.7738ZM619.67 45H620.819V42.2902H623.119V45H624.268V37.8557H623.119V40.5655H620.819V37.8557H619.669L619.67 45ZM630.345 41.1404C630.345 39.0051 629.36 37.6911 627.553 37.6911C625.582 37.6911 624.761 39.0051 624.761 41.1404C624.761 43.1111 625.418 45 627.553 45C629.606 45 630.345 43.1111 630.345 41.1404ZM630.838 45H634.122V43.3575H631.987V37.7736H630.838V45ZM642.005 37.8557H639.87L638.31 45H639.542L639.788 43.686H642.087L642.334 45H643.484L642.005 37.8557ZM640.609 39.4164H641.267L641.841 42.5365H639.953L640.609 39.4164ZM610.309 45V43.3575H607.927V41.9617H610.309V40.9761H607.927V39.4164H610.309V37.7738H606.777V43.5214L604.807 37.7738H603V45H604.15L604.068 39.3336L606.12 45H610.309ZM634.615 45H637.899V43.3575H635.764V37.7736H634.615V45ZM647.918 43.5214L645.865 37.7738H644.058V45H645.208L645.126 39.3336L647.179 45H649.806C652.188 45 652.681 43.7678 652.681 41.058C652.598 38.8415 651.942 37.7738 649.806 37.7738H647.836V41.058L647.918 43.5214ZM649.068 39.3336H649.889C651.12 39.3336 651.695 39.7446 651.695 41.3868V41.3044C651.695 42.9469 651.12 43.4396 649.889 43.3575H649.068V39.3336ZM629.277 41.1404C629.277 42.208 629.195 43.4396 627.553 43.4396C625.911 43.4396 625.746 42.208 625.746 41.1404C625.746 40.1549 626.239 39.3336 627.553 39.3336C628.867 39.3336 629.277 40.1549 629.277 41.1404ZM612.279 14.5347C612.279 14.042 612.608 13.7135 612.854 13.9598C615.81 16.9161 626.732 24.9638 626.65 32.0254C626.568 32.4357 626.239 32.6821 625.829 32.6821C617.699 32.1075 611.047 28.9052 612.279 14.5347ZM637.571 1.97101C635.272 0.739129 632.89 0.164549 630.016 0C629.441 0 629.195 0.410627 629.113 0.90338C628.867 4.59873 628.949 6.65157 628.867 10.2645C628.784 10.8394 629.195 11.5785 629.852 10.7572C632.89 7.80103 634.615 6.15882 637.653 3.2026C638.146 2.79227 637.982 2.13526 637.571 1.97101ZM617.863 1.97101C620.245 0.739129 622.626 0.164549 625.5 0C626.075 0 626.321 0.410627 626.403 0.90338C626.65 4.59873 626.568 6.65157 626.65 10.2645C626.732 10.8394 626.321 11.5785 625.582 10.7572C622.544 7.80103 620.819 6.15882 617.864 3.2026C617.288 2.79227 617.535 2.13526 617.863 1.97101ZM639.46 4.27052C633.711 9.77204 628.62 13.4671 628.867 23.3216C628.867 23.7319 629.195 24.1428 629.77 23.6501C634.533 18.9692 637.242 16.4236 642.087 11.7431C642.826 11.0039 642.991 10.3469 642.745 9.19716C642.252 7.14432 641.841 6.24094 640.609 4.59873C640.281 4.27052 639.953 4.10598 639.46 4.27052ZM616.057 4.27052C621.805 9.77204 626.896 13.4674 626.65 23.3216C626.65 23.7319 626.321 24.1428 625.746 23.6501C620.983 18.9689 618.274 16.4236 613.429 11.7431C612.69 11.0039 612.526 10.3469 612.772 9.19716C613.265 7.14432 613.675 6.24094 614.907 4.59873C615.236 4.27052 615.564 4.10598 616.057 4.27052ZM643.319 14.5347C643.319 14.042 643.073 13.7135 642.744 13.9598C639.87 16.9161 628.867 24.9638 628.949 32.0254C629.031 32.4357 629.441 32.6821 629.852 32.6821C637.899 32.1075 644.551 28.9052 643.319 14.5347Z" fill="#BBC0D0"/>
<defs>
<clipPath id="clip0_4_2560">
<rect width="85" height="45" fill="white"/>
</clipPath>
</defs>
</svg>
