<svg width="793" height="234" viewBox="0 0 793 234" fill="none" xmlns="http://www.w3.org/2000/svg">
<g filter="url(#filter0_d_4_2569)">
<rect x="75" y="50" width="643" height="84" rx="16" fill="white" shape-rendering="crispEdges"/>
<path opacity="0.5" d="M109.818 85.3636V97H108.409V85.3636H109.818ZM116.457 88.2727V89.4091H111.934V88.2727H116.457ZM113.253 86.1818H114.593V94.5C114.593 94.8788 114.648 95.1629 114.758 95.3523C114.872 95.5379 115.016 95.6629 115.19 95.7273C115.368 95.7879 115.556 95.8182 115.753 95.8182C115.9 95.8182 116.021 95.8106 116.116 95.7955C116.211 95.7765 116.287 95.7614 116.343 95.75L116.616 96.9545C116.525 96.9886 116.398 97.0227 116.236 97.0568C116.073 97.0947 115.866 97.1136 115.616 97.1136C115.237 97.1136 114.866 97.0322 114.503 96.8693C114.143 96.7064 113.843 96.4583 113.605 96.125C113.37 95.7917 113.253 95.3712 113.253 94.8636V86.1818ZM122.239 97.1818C121.399 97.1818 120.673 96.9962 120.063 96.625C119.457 96.25 118.989 95.7273 118.66 95.0568C118.334 94.3826 118.171 93.5985 118.171 92.7045C118.171 91.8106 118.334 91.0227 118.66 90.3409C118.989 89.6553 119.448 89.1212 120.035 88.7386C120.626 88.3523 121.315 88.1591 122.103 88.1591C122.558 88.1591 123.007 88.2348 123.45 88.3864C123.893 88.5379 124.296 88.7841 124.66 89.125C125.024 89.4621 125.313 89.9091 125.529 90.4659C125.745 91.0227 125.853 91.7083 125.853 92.5227V93.0909H119.126V91.9318H124.489C124.489 91.4394 124.391 91 124.194 90.6136C124.001 90.2273 123.724 89.9223 123.364 89.6989C123.008 89.4754 122.588 89.3636 122.103 89.3636C121.569 89.3636 121.107 89.4962 120.717 89.7614C120.33 90.0227 120.033 90.3636 119.825 90.7841C119.616 91.2045 119.512 91.6553 119.512 92.1364V92.9091C119.512 93.5682 119.626 94.1269 119.853 94.5852C120.084 95.0398 120.404 95.3864 120.813 95.625C121.222 95.8598 121.698 95.9773 122.239 95.9773C122.592 95.9773 122.91 95.928 123.194 95.8295C123.482 95.7273 123.73 95.5758 123.938 95.375C124.147 95.1705 124.308 94.9167 124.421 94.6136L125.717 94.9773C125.58 95.4167 125.351 95.803 125.029 96.1364C124.707 96.4659 124.31 96.7235 123.836 96.9091C123.363 97.0909 122.83 97.1818 122.239 97.1818ZM128.093 97V88.2727H129.388V89.6364H129.502C129.684 89.1705 129.977 88.8087 130.383 88.5511C130.788 88.2898 131.275 88.1591 131.843 88.1591C132.419 88.1591 132.898 88.2898 133.28 88.5511C133.667 88.8087 133.968 89.1705 134.184 89.6364H134.275C134.498 89.1856 134.833 88.8277 135.28 88.5625C135.727 88.2936 136.263 88.1591 136.888 88.1591C137.669 88.1591 138.307 88.4034 138.803 88.892C139.299 89.3769 139.547 90.1326 139.547 91.1591V97H138.207V91.1591C138.207 90.5152 138.03 90.0549 137.678 89.7784C137.326 89.5019 136.911 89.3636 136.434 89.3636C135.82 89.3636 135.345 89.5492 135.008 89.9205C134.671 90.2879 134.502 90.7538 134.502 91.3182V97H133.138V91.0227C133.138 90.5265 132.977 90.1269 132.655 89.8239C132.333 89.517 131.919 89.3636 131.411 89.3636C131.063 89.3636 130.737 89.4564 130.434 89.642C130.135 89.8277 129.892 90.0852 129.707 90.4148C129.525 90.7405 129.434 91.1174 129.434 91.5455V97H128.093ZM148.381 90.2273L147.176 90.5682C147.101 90.3674 146.989 90.1723 146.841 89.983C146.697 89.7898 146.5 89.6307 146.25 89.5057C146 89.3807 145.68 89.3182 145.29 89.3182C144.756 89.3182 144.311 89.4413 143.955 89.6875C143.603 89.9299 143.426 90.2386 143.426 90.6136C143.426 90.947 143.548 91.2102 143.79 91.4034C144.032 91.5966 144.411 91.7576 144.926 91.8864L146.222 92.2045C147.002 92.3939 147.584 92.6837 147.966 93.0739C148.349 93.4602 148.54 93.9583 148.54 94.5682C148.54 95.0682 148.396 95.5152 148.108 95.9091C147.824 96.303 147.426 96.6136 146.915 96.8409C146.404 97.0682 145.809 97.1818 145.131 97.1818C144.241 97.1818 143.504 96.9886 142.921 96.6023C142.337 96.2159 141.968 95.6515 141.813 94.9091L143.086 94.5909C143.207 95.0606 143.436 95.4129 143.773 95.6477C144.114 95.8826 144.559 96 145.108 96C145.733 96 146.229 95.8674 146.597 95.6023C146.968 95.3333 147.154 95.0114 147.154 94.6364C147.154 94.3333 147.048 94.0795 146.836 93.875C146.623 93.6667 146.298 93.5114 145.858 93.4091L144.404 93.0682C143.604 92.8788 143.017 92.5852 142.642 92.1875C142.271 91.786 142.086 91.2841 142.086 90.6818C142.086 90.1894 142.224 89.7538 142.5 89.375C142.781 88.9962 143.161 88.6989 143.642 88.483C144.127 88.267 144.676 88.1591 145.29 88.1591C146.154 88.1591 146.832 88.3485 147.324 88.7273C147.82 89.1061 148.173 89.6061 148.381 90.2273ZM152.759 95.4091L152.668 96.0227C152.603 96.4545 152.505 96.9167 152.372 97.4091C152.243 97.9015 152.109 98.3655 151.969 98.8011C151.829 99.2367 151.713 99.5833 151.622 99.8409H150.599C150.649 99.5985 150.713 99.2784 150.793 98.8807C150.872 98.483 150.952 98.0379 151.031 97.5455C151.115 97.0568 151.183 96.5568 151.236 96.0455L151.304 95.4091H152.759ZM163.688 97.1818C162.87 97.1818 162.166 96.9886 161.575 96.6023C160.984 96.2159 160.529 95.6837 160.211 95.0057C159.893 94.3277 159.734 93.553 159.734 92.6818C159.734 91.7955 159.897 91.0133 160.222 90.3352C160.552 89.6534 161.01 89.1212 161.597 88.7386C162.188 88.3523 162.878 88.1591 163.666 88.1591C164.279 88.1591 164.832 88.2727 165.325 88.5C165.817 88.7273 166.221 89.0455 166.535 89.4545C166.849 89.8636 167.044 90.3409 167.12 90.8864H165.779C165.677 90.4886 165.45 90.1364 165.097 89.8295C164.749 89.5189 164.279 89.3636 163.688 89.3636C163.166 89.3636 162.707 89.5 162.313 89.7727C161.923 90.0417 161.618 90.4223 161.399 90.9148C161.183 91.4034 161.075 91.9773 161.075 92.6364C161.075 93.3106 161.181 93.8977 161.393 94.3977C161.609 94.8977 161.912 95.286 162.302 95.5625C162.696 95.839 163.158 95.9773 163.688 95.9773C164.037 95.9773 164.353 95.9167 164.637 95.7955C164.921 95.6742 165.162 95.5 165.359 95.2727C165.556 95.0455 165.696 94.7727 165.779 94.4545H167.12C167.044 94.9697 166.857 95.4337 166.558 95.8466C166.262 96.2557 165.87 96.5814 165.382 96.8239C164.897 97.0625 164.332 97.1818 163.688 97.1818ZM172.826 97.1818C172.038 97.1818 171.347 96.9943 170.752 96.6193C170.161 96.2443 169.699 95.7197 169.366 95.0455C169.036 94.3712 168.871 93.5833 168.871 92.6818C168.871 91.7727 169.036 90.9792 169.366 90.3011C169.699 89.6231 170.161 89.0966 170.752 88.7216C171.347 88.3466 172.038 88.1591 172.826 88.1591C173.614 88.1591 174.303 88.3466 174.894 88.7216C175.489 89.0966 175.951 89.6231 176.28 90.3011C176.614 90.9792 176.78 91.7727 176.78 92.6818C176.78 93.5833 176.614 94.3712 176.28 95.0455C175.951 95.7197 175.489 96.2443 174.894 96.6193C174.303 96.9943 173.614 97.1818 172.826 97.1818ZM172.826 95.9773C173.424 95.9773 173.917 95.8239 174.303 95.517C174.689 95.2102 174.975 94.8068 175.161 94.3068C175.347 93.8068 175.439 93.2652 175.439 92.6818C175.439 92.0985 175.347 91.5549 175.161 91.0511C174.975 90.5473 174.689 90.1402 174.303 89.8295C173.917 89.5189 173.424 89.3636 172.826 89.3636C172.227 89.3636 171.735 89.5189 171.349 89.8295C170.962 90.1402 170.676 90.5473 170.491 91.0511C170.305 91.5549 170.212 92.0985 170.212 92.6818C170.212 93.2652 170.305 93.8068 170.491 94.3068C170.676 94.8068 170.962 95.2102 171.349 95.517C171.735 95.8239 172.227 95.9773 172.826 95.9773ZM180.368 85.3636V97H179.027V85.3636H180.368ZM184.365 85.3636V97H183.024V85.3636H184.365ZM190.68 97.1818C189.839 97.1818 189.114 96.9962 188.504 96.625C187.898 96.25 187.43 95.7273 187.101 95.0568C186.775 94.3826 186.612 93.5985 186.612 92.7045C186.612 91.8106 186.775 91.0227 187.101 90.3409C187.43 89.6553 187.888 89.1212 188.476 88.7386C189.066 88.3523 189.756 88.1591 190.544 88.1591C190.998 88.1591 191.447 88.2348 191.89 88.3864C192.334 88.5379 192.737 88.7841 193.101 89.125C193.464 89.4621 193.754 89.9091 193.97 90.4659C194.186 91.0227 194.294 91.7083 194.294 92.5227V93.0909H187.566V91.9318H192.93C192.93 91.4394 192.832 91 192.635 90.6136C192.441 90.2273 192.165 89.9223 191.805 89.6989C191.449 89.4754 191.029 89.3636 190.544 89.3636C190.01 89.3636 189.548 89.4962 189.157 89.7614C188.771 90.0227 188.474 90.3636 188.265 90.7841C188.057 91.2045 187.953 91.6553 187.953 92.1364V92.9091C187.953 93.5682 188.066 94.1269 188.294 94.5852C188.525 95.0398 188.845 95.3864 189.254 95.625C189.663 95.8598 190.138 95.9773 190.68 95.9773C191.032 95.9773 191.351 95.928 191.635 95.8295C191.923 95.7273 192.171 95.5758 192.379 95.375C192.587 95.1705 192.748 94.9167 192.862 94.6136L194.157 94.9773C194.021 95.4167 193.792 95.803 193.47 96.1364C193.148 96.4659 192.75 96.7235 192.277 96.9091C191.803 97.0909 191.271 97.1818 190.68 97.1818ZM200.079 97.1818C199.261 97.1818 198.556 96.9886 197.965 96.6023C197.374 96.2159 196.92 95.6837 196.602 95.0057C196.284 94.3277 196.124 93.553 196.124 92.6818C196.124 91.7955 196.287 91.0133 196.613 90.3352C196.943 89.6534 197.401 89.1212 197.988 88.7386C198.579 88.3523 199.268 88.1591 200.056 88.1591C200.67 88.1591 201.223 88.2727 201.715 88.5C202.208 88.7273 202.611 89.0455 202.926 89.4545C203.24 89.8636 203.435 90.3409 203.511 90.8864H202.17C202.068 90.4886 201.84 90.1364 201.488 89.8295C201.14 89.5189 200.67 89.3636 200.079 89.3636C199.556 89.3636 199.098 89.5 198.704 89.7727C198.314 90.0417 198.009 90.4223 197.789 90.9148C197.573 91.4034 197.465 91.9773 197.465 92.6364C197.465 93.3106 197.571 93.8977 197.784 94.3977C197.999 94.8977 198.302 95.286 198.693 95.5625C199.087 95.839 199.549 95.9773 200.079 95.9773C200.427 95.9773 200.744 95.9167 201.028 95.7955C201.312 95.6742 201.552 95.5 201.749 95.2727C201.946 95.0455 202.087 94.7727 202.17 94.4545H203.511C203.435 94.9697 203.248 95.4337 202.948 95.8466C202.653 96.2557 202.261 96.5814 201.772 96.8239C201.287 97.0625 200.723 97.1818 200.079 97.1818ZM209.466 88.2727V89.4091H204.944V88.2727H209.466ZM206.262 86.1818H207.603V94.5C207.603 94.8788 207.658 95.1629 207.768 95.3523C207.881 95.5379 208.025 95.6629 208.199 95.7273C208.377 95.7879 208.565 95.8182 208.762 95.8182C208.91 95.8182 209.031 95.8106 209.126 95.7955C209.22 95.7765 209.296 95.7614 209.353 95.75L209.626 96.9545C209.535 96.9886 209.408 97.0227 209.245 97.0568C209.082 97.0947 208.876 97.1136 208.626 97.1136C208.247 97.1136 207.876 97.0322 207.512 96.8693C207.152 96.7064 206.853 96.4583 206.614 96.125C206.379 95.7917 206.262 95.3712 206.262 94.8636V86.1818ZM211.684 97V88.2727H213.024V97H211.684ZM212.365 86.8182C212.104 86.8182 211.879 86.7292 211.689 86.5511C211.504 86.3731 211.411 86.1591 211.411 85.9091C211.411 85.6591 211.504 85.4451 211.689 85.267C211.879 85.089 212.104 85 212.365 85C212.627 85 212.85 85.089 213.036 85.267C213.225 85.4451 213.32 85.6591 213.32 85.9091C213.32 86.1591 213.225 86.3731 213.036 86.5511C212.85 86.7292 212.627 86.8182 212.365 86.8182ZM219.226 97.1818C218.438 97.1818 217.747 96.9943 217.152 96.6193C216.561 96.2443 216.099 95.7197 215.766 95.0455C215.436 94.3712 215.271 93.5833 215.271 92.6818C215.271 91.7727 215.436 90.9792 215.766 90.3011C216.099 89.6231 216.561 89.0966 217.152 88.7216C217.747 88.3466 218.438 88.1591 219.226 88.1591C220.014 88.1591 220.703 88.3466 221.294 88.7216C221.889 89.0966 222.351 89.6231 222.68 90.3011C223.014 90.9792 223.18 91.7727 223.18 92.6818C223.18 93.5833 223.014 94.3712 222.68 95.0455C222.351 95.7197 221.889 96.2443 221.294 96.6193C220.703 96.9943 220.014 97.1818 219.226 97.1818ZM219.226 95.9773C219.824 95.9773 220.317 95.8239 220.703 95.517C221.089 95.2102 221.375 94.8068 221.561 94.3068C221.747 93.8068 221.839 93.2652 221.839 92.6818C221.839 92.0985 221.747 91.5549 221.561 91.0511C221.375 90.5473 221.089 90.1402 220.703 89.8295C220.317 89.5189 219.824 89.3636 219.226 89.3636C218.627 89.3636 218.135 89.5189 217.749 89.8295C217.362 90.1402 217.076 90.5473 216.891 91.0511C216.705 91.5549 216.612 92.0985 216.612 92.6818C216.612 93.2652 216.705 93.8068 216.891 94.3068C217.076 94.8068 217.362 95.2102 217.749 95.517C218.135 95.8239 218.627 95.9773 219.226 95.9773ZM226.768 91.75V97H225.427V88.2727H226.723V89.6364H226.836C227.041 89.1932 227.352 88.8371 227.768 88.5682C228.185 88.2955 228.723 88.1591 229.382 88.1591C229.973 88.1591 230.49 88.2803 230.933 88.5227C231.376 88.7614 231.721 89.125 231.967 89.6136C232.213 90.0985 232.336 90.7121 232.336 91.4545V97H230.995V91.5455C230.995 90.8598 230.817 90.3258 230.461 89.9432C230.105 89.5568 229.617 89.3636 228.995 89.3636C228.567 89.3636 228.185 89.4564 227.848 89.642C227.514 89.8277 227.251 90.0985 227.058 90.4545C226.865 90.8106 226.768 91.2424 226.768 91.75ZM241.168 90.2273L239.964 90.5682C239.888 90.3674 239.776 90.1723 239.629 89.983C239.485 89.7898 239.288 89.6307 239.038 89.5057C238.788 89.3807 238.468 89.3182 238.078 89.3182C237.543 89.3182 237.098 89.4413 236.742 89.6875C236.39 89.9299 236.214 90.2386 236.214 90.6136C236.214 90.947 236.335 91.2102 236.578 91.4034C236.82 91.5966 237.199 91.7576 237.714 91.8864L239.009 92.2045C239.79 92.3939 240.371 92.6837 240.754 93.0739C241.136 93.4602 241.328 93.9583 241.328 94.5682C241.328 95.0682 241.184 95.5152 240.896 95.9091C240.612 96.303 240.214 96.6136 239.703 96.8409C239.191 97.0682 238.596 97.1818 237.918 97.1818C237.028 97.1818 236.292 96.9886 235.708 96.6023C235.125 96.2159 234.756 95.6515 234.6 94.9091L235.873 94.5909C235.994 95.0606 236.223 95.4129 236.561 95.6477C236.901 95.8826 237.346 96 237.896 96C238.521 96 239.017 95.8674 239.384 95.6023C239.756 95.3333 239.941 95.0114 239.941 94.6364C239.941 94.3333 239.835 94.0795 239.623 93.875C239.411 93.6667 239.085 93.5114 238.646 93.4091L237.191 93.0682C236.392 92.8788 235.805 92.5852 235.43 92.1875C235.059 91.786 234.873 91.2841 234.873 90.6818C234.873 90.1894 235.011 89.7538 235.288 89.375C235.568 88.9962 235.949 88.6989 236.43 88.483C236.915 88.267 237.464 88.1591 238.078 88.1591C238.941 88.1591 239.619 88.3485 240.112 88.7273C240.608 89.1061 240.96 89.6061 241.168 90.2273ZM250.814 97.2045C250.261 97.2045 249.759 97.1004 249.309 96.892C248.858 96.6799 248.5 96.375 248.235 95.9773C247.97 95.5758 247.837 95.0909 247.837 94.5227C247.837 94.0227 247.935 93.6174 248.132 93.3068C248.329 92.9924 248.593 92.7462 248.922 92.5682C249.252 92.3902 249.615 92.2576 250.013 92.1705C250.415 92.0795 250.818 92.0076 251.223 91.9545C251.754 91.8864 252.184 91.8352 252.513 91.8011C252.846 91.7633 253.089 91.7008 253.24 91.6136C253.396 91.5265 253.473 91.375 253.473 91.1591V91.1136C253.473 90.553 253.32 90.1174 253.013 89.8068C252.71 89.4962 252.25 89.3409 251.632 89.3409C250.992 89.3409 250.49 89.4811 250.127 89.7614C249.763 90.0417 249.507 90.3409 249.36 90.6591L248.087 90.2045C248.314 89.6742 248.617 89.2614 248.996 88.9659C249.379 88.6667 249.795 88.4583 250.246 88.3409C250.701 88.2197 251.148 88.1591 251.587 88.1591C251.867 88.1591 252.189 88.1932 252.553 88.2614C252.92 88.3258 253.274 88.4602 253.615 88.6648C253.96 88.8693 254.246 89.178 254.473 89.5909C254.701 90.0038 254.814 90.5568 254.814 91.25V97H253.473V95.8182H253.405C253.314 96.0076 253.163 96.2102 252.951 96.4261C252.738 96.642 252.456 96.8258 252.104 96.9773C251.752 97.1288 251.322 97.2045 250.814 97.2045ZM251.019 96C251.549 96 251.996 95.8958 252.36 95.6875C252.727 95.4792 253.004 95.2102 253.189 94.8807C253.379 94.5511 253.473 94.2045 253.473 93.8409V92.6136C253.416 92.6818 253.291 92.7443 253.098 92.8011C252.909 92.8542 252.689 92.9015 252.439 92.9432C252.193 92.9811 251.952 93.0152 251.718 93.0455C251.487 93.072 251.299 93.0947 251.155 93.1136C250.807 93.1591 250.481 93.233 250.178 93.3352C249.879 93.4337 249.636 93.5833 249.451 93.7841C249.269 93.9811 249.178 94.25 249.178 94.5909C249.178 95.0568 249.35 95.4091 249.695 95.6477C250.043 95.8826 250.485 96 251.019 96ZM258.803 91.75V97H257.462V88.2727H258.757V89.6364H258.871C259.075 89.1932 259.386 88.8371 259.803 88.5682C260.219 88.2955 260.757 88.1591 261.416 88.1591C262.007 88.1591 262.524 88.2803 262.967 88.5227C263.411 88.7614 263.755 89.125 264.001 89.6136C264.248 90.0985 264.371 90.7121 264.371 91.4545V97H263.03V91.5455C263.03 90.8598 262.852 90.3258 262.496 89.9432C262.14 89.5568 261.651 89.3636 261.03 89.3636C260.602 89.3636 260.219 89.4564 259.882 89.642C259.549 89.8277 259.286 90.0985 259.092 90.4545C258.899 90.8106 258.803 91.2424 258.803 91.75ZM270.316 97.1818C269.589 97.1818 268.947 96.9981 268.39 96.6307C267.834 96.2595 267.398 95.7367 267.084 95.0625C266.769 94.3845 266.612 93.5833 266.612 92.6591C266.612 91.7424 266.769 90.947 267.084 90.2727C267.398 89.5985 267.835 89.0777 268.396 88.7102C268.957 88.3428 269.604 88.1591 270.339 88.1591C270.907 88.1591 271.356 88.2538 271.686 88.4432C272.019 88.6288 272.273 88.8409 272.447 89.0795C272.625 89.3144 272.763 89.5076 272.862 89.6591H272.976V85.3636H274.316V97H273.021V95.6591H272.862C272.763 95.8182 272.623 96.0189 272.441 96.2614C272.26 96.5 272 96.714 271.663 96.9034C271.326 97.089 270.877 97.1818 270.316 97.1818ZM270.498 95.9773C271.036 95.9773 271.491 95.8371 271.862 95.5568C272.233 95.2727 272.515 94.8807 272.709 94.3807C272.902 93.8769 272.998 93.2955 272.998 92.6364C272.998 91.9848 272.904 91.4148 272.714 90.9261C272.525 90.4337 272.245 90.0511 271.873 89.7784C271.502 89.5019 271.044 89.3636 270.498 89.3636C269.93 89.3636 269.457 89.5095 269.078 89.8011C268.703 90.089 268.421 90.4811 268.231 90.9773C268.046 91.4697 267.953 92.0227 267.953 92.6364C267.953 93.2576 268.048 93.822 268.237 94.3295C268.43 94.8333 268.714 95.2348 269.089 95.5341C269.468 95.8295 269.938 95.9773 270.498 95.9773ZM285.404 97.1818C284.586 97.1818 283.881 96.9886 283.29 96.6023C282.699 96.2159 282.245 95.6837 281.927 95.0057C281.609 94.3277 281.449 93.553 281.449 92.6818C281.449 91.7955 281.612 91.0133 281.938 90.3352C282.268 89.6534 282.726 89.1212 283.313 88.7386C283.904 88.3523 284.593 88.1591 285.381 88.1591C285.995 88.1591 286.548 88.2727 287.04 88.5C287.533 88.7273 287.936 89.0455 288.251 89.4545C288.565 89.8636 288.76 90.3409 288.836 90.8864H287.495C287.393 90.4886 287.165 90.1364 286.813 89.8295C286.465 89.5189 285.995 89.3636 285.404 89.3636C284.881 89.3636 284.423 89.5 284.029 89.7727C283.639 90.0417 283.334 90.4223 283.114 90.9148C282.898 91.4034 282.79 91.9773 282.79 92.6364C282.79 93.3106 282.896 93.8977 283.109 94.3977C283.324 94.8977 283.627 95.286 284.018 95.5625C284.412 95.839 284.874 95.9773 285.404 95.9773C285.752 95.9773 286.069 95.9167 286.353 95.7955C286.637 95.6742 286.877 95.5 287.074 95.2727C287.271 95.0455 287.412 94.7727 287.495 94.4545H288.836C288.76 94.9697 288.573 95.4337 288.273 95.8466C287.978 96.2557 287.586 96.5814 287.097 96.8239C286.612 97.0625 286.048 97.1818 285.404 97.1818ZM290.996 97V88.2727H292.291V89.5909H292.382C292.541 89.1591 292.829 88.8087 293.246 88.5398C293.663 88.2708 294.132 88.1364 294.655 88.1364C294.754 88.1364 294.877 88.1383 295.024 88.142C295.172 88.1458 295.284 88.1515 295.36 88.1591V89.5227C295.314 89.5114 295.21 89.4943 295.047 89.4716C294.888 89.4451 294.72 89.4318 294.541 89.4318C294.117 89.4318 293.738 89.5208 293.405 89.6989C293.076 89.8731 292.814 90.1155 292.621 90.4261C292.432 90.733 292.337 91.0833 292.337 91.4773V97H290.996ZM300.543 97.1818C299.702 97.1818 298.976 96.9962 298.366 96.625C297.76 96.25 297.293 95.7273 296.963 95.0568C296.637 94.3826 296.474 93.5985 296.474 92.7045C296.474 91.8106 296.637 91.0227 296.963 90.3409C297.293 89.6553 297.751 89.1212 298.338 88.7386C298.929 88.3523 299.618 88.1591 300.406 88.1591C300.861 88.1591 301.31 88.2348 301.753 88.3864C302.196 88.5379 302.599 88.7841 302.963 89.125C303.327 89.4621 303.616 89.9091 303.832 90.4659C304.048 91.0227 304.156 91.7083 304.156 92.5227V93.0909H297.429V91.9318H302.793C302.793 91.4394 302.694 91 302.497 90.6136C302.304 90.2273 302.027 89.9223 301.668 89.6989C301.312 89.4754 300.891 89.3636 300.406 89.3636C299.872 89.3636 299.41 89.4962 299.02 89.7614C298.634 90.0227 298.336 90.3636 298.128 90.7841C297.92 91.2045 297.815 91.6553 297.815 92.1364V92.9091C297.815 93.5682 297.929 94.1269 298.156 94.5852C298.387 95.0398 298.707 95.3864 299.116 95.625C299.526 95.8598 300.001 95.9773 300.543 95.9773C300.895 95.9773 301.213 95.928 301.497 95.8295C301.785 95.7273 302.033 95.5758 302.241 95.375C302.45 95.1705 302.611 94.9167 302.724 94.6136L304.02 94.9773C303.884 95.4167 303.654 95.803 303.332 96.1364C303.01 96.4659 302.613 96.7235 302.139 96.9091C301.666 97.0909 301.134 97.1818 300.543 97.1818ZM308.964 97.2045C308.411 97.2045 307.909 97.1004 307.459 96.892C307.008 96.6799 306.65 96.375 306.385 95.9773C306.12 95.5758 305.987 95.0909 305.987 94.5227C305.987 94.0227 306.085 93.6174 306.282 93.3068C306.479 92.9924 306.743 92.7462 307.072 92.5682C307.402 92.3902 307.765 92.2576 308.163 92.1705C308.565 92.0795 308.968 92.0076 309.373 91.9545C309.904 91.8864 310.334 91.8352 310.663 91.8011C310.996 91.7633 311.239 91.7008 311.39 91.6136C311.546 91.5265 311.623 91.375 311.623 91.1591V91.1136C311.623 90.553 311.47 90.1174 311.163 89.8068C310.86 89.4962 310.4 89.3409 309.782 89.3409C309.142 89.3409 308.64 89.4811 308.277 89.7614C307.913 90.0417 307.657 90.3409 307.51 90.6591L306.237 90.2045C306.464 89.6742 306.767 89.2614 307.146 88.9659C307.529 88.6667 307.945 88.4583 308.396 88.3409C308.851 88.2197 309.298 88.1591 309.737 88.1591C310.017 88.1591 310.339 88.1932 310.703 88.2614C311.07 88.3258 311.424 88.4602 311.765 88.6648C312.11 88.8693 312.396 89.178 312.623 89.5909C312.851 90.0038 312.964 90.5568 312.964 91.25V97H311.623V95.8182H311.555C311.464 96.0076 311.313 96.2102 311.101 96.4261C310.888 96.642 310.606 96.8258 310.254 96.9773C309.902 97.1288 309.472 97.2045 308.964 97.2045ZM309.169 96C309.699 96 310.146 95.8958 310.51 95.6875C310.877 95.4792 311.154 95.2102 311.339 94.8807C311.529 94.5511 311.623 94.2045 311.623 93.8409V92.6136C311.566 92.6818 311.441 92.7443 311.248 92.8011C311.059 92.8542 310.839 92.9015 310.589 92.9432C310.343 92.9811 310.102 93.0152 309.868 93.0455C309.637 93.072 309.449 93.0947 309.305 93.1136C308.957 93.1591 308.631 93.233 308.328 93.3352C308.029 93.4337 307.786 93.5833 307.601 93.7841C307.419 93.9811 307.328 94.25 307.328 94.5909C307.328 95.0568 307.5 95.4091 307.845 95.6477C308.193 95.8826 308.635 96 309.169 96ZM319.407 88.2727V89.4091H314.884V88.2727H319.407ZM316.203 86.1818H317.543V94.5C317.543 94.8788 317.598 95.1629 317.708 95.3523C317.822 95.5379 317.966 95.6629 318.14 95.7273C318.318 95.7879 318.506 95.8182 318.703 95.8182C318.85 95.8182 318.971 95.8106 319.066 95.7955C319.161 95.7765 319.237 95.7614 319.293 95.75L319.566 96.9545C319.475 96.9886 319.348 97.0227 319.186 97.0568C319.023 97.0947 318.816 97.1136 318.566 97.1136C318.187 97.1136 317.816 97.0322 317.453 96.8693C317.093 96.7064 316.793 96.4583 316.555 96.125C316.32 95.7917 316.203 95.3712 316.203 94.8636V86.1818ZM325.076 97.1818C324.288 97.1818 323.597 96.9943 323.002 96.6193C322.411 96.2443 321.949 95.7197 321.616 95.0455C321.286 94.3712 321.121 93.5833 321.121 92.6818C321.121 91.7727 321.286 90.9792 321.616 90.3011C321.949 89.6231 322.411 89.0966 323.002 88.7216C323.597 88.3466 324.288 88.1591 325.076 88.1591C325.864 88.1591 326.553 88.3466 327.144 88.7216C327.739 89.0966 328.201 89.6231 328.53 90.3011C328.864 90.9792 329.03 91.7727 329.03 92.6818C329.03 93.5833 328.864 94.3712 328.53 95.0455C328.201 95.7197 327.739 96.2443 327.144 96.6193C326.553 96.9943 325.864 97.1818 325.076 97.1818ZM325.076 95.9773C325.674 95.9773 326.167 95.8239 326.553 95.517C326.939 95.2102 327.225 94.8068 327.411 94.3068C327.597 93.8068 327.689 93.2652 327.689 92.6818C327.689 92.0985 327.597 91.5549 327.411 91.0511C327.225 90.5473 326.939 90.1402 326.553 89.8295C326.167 89.5189 325.674 89.3636 325.076 89.3636C324.477 89.3636 323.985 89.5189 323.599 89.8295C323.212 90.1402 322.926 90.5473 322.741 91.0511C322.555 91.5549 322.462 92.0985 322.462 92.6818C322.462 93.2652 322.555 93.8068 322.741 94.3068C322.926 94.8068 323.212 95.2102 323.599 95.517C323.985 95.8239 324.477 95.9773 325.076 95.9773ZM331.277 97V88.2727H332.573V89.5909H332.664C332.823 89.1591 333.111 88.8087 333.527 88.5398C333.944 88.2708 334.414 88.1364 334.936 88.1364C335.035 88.1364 335.158 88.1383 335.306 88.142C335.453 88.1458 335.565 88.1515 335.641 88.1591V89.5227C335.595 89.5114 335.491 89.4943 335.328 89.4716C335.169 89.4451 335.001 89.4318 334.823 89.4318C334.398 89.4318 334.02 89.5208 333.686 89.6989C333.357 89.8731 333.095 90.1155 332.902 90.4261C332.713 90.733 332.618 91.0833 332.618 91.4773V97H331.277ZM343.612 90.2273L342.408 90.5682C342.332 90.3674 342.22 90.1723 342.072 89.983C341.929 89.7898 341.732 89.6307 341.482 89.5057C341.232 89.3807 340.911 89.3182 340.521 89.3182C339.987 89.3182 339.542 89.4413 339.186 89.6875C338.834 89.9299 338.658 90.2386 338.658 90.6136C338.658 90.947 338.779 91.2102 339.021 91.4034C339.264 91.5966 339.643 91.7576 340.158 91.8864L341.453 92.2045C342.233 92.3939 342.815 92.6837 343.197 93.0739C343.58 93.4602 343.771 93.9583 343.771 94.5682C343.771 95.0682 343.627 95.5152 343.339 95.9091C343.055 96.303 342.658 96.6136 342.146 96.8409C341.635 97.0682 341.04 97.1818 340.362 97.1818C339.472 97.1818 338.735 96.9886 338.152 96.6023C337.569 96.2159 337.199 95.6515 337.044 94.9091L338.317 94.5909C338.438 95.0606 338.667 95.4129 339.004 95.6477C339.345 95.8826 339.79 96 340.339 96C340.964 96 341.461 95.8674 341.828 95.6023C342.199 95.3333 342.385 95.0114 342.385 94.6364C342.385 94.3333 342.279 94.0795 342.067 93.875C341.855 93.6667 341.529 93.5114 341.089 93.4091L339.635 93.0682C338.836 92.8788 338.249 92.5852 337.874 92.1875C337.502 91.786 337.317 91.2841 337.317 90.6818C337.317 90.1894 337.455 89.7538 337.732 89.375C338.012 88.9962 338.393 88.6989 338.874 88.483C339.358 88.267 339.908 88.1591 340.521 88.1591C341.385 88.1591 342.063 88.3485 342.555 88.7273C343.052 89.1061 343.404 89.6061 343.612 90.2273Z" fill="#BBC0D0"/>
<g opacity="0.5">
<path d="M607.414 91L610.95 94.5355M614.535 91L611 94.5355" stroke="#1F2A47" stroke-width="2" stroke-linecap="round"/>
</g>
<path d="M480.773 89H479.364C479.28 88.5947 479.134 88.2386 478.926 87.9318C478.722 87.625 478.472 87.3674 478.176 87.1591C477.884 86.947 477.561 86.7879 477.205 86.6818C476.848 86.5758 476.477 86.5227 476.091 86.5227C475.386 86.5227 474.748 86.7008 474.176 87.0568C473.608 87.4129 473.155 87.9375 472.818 88.6307C472.485 89.3239 472.318 90.1742 472.318 91.1818C472.318 92.1894 472.485 93.0398 472.818 93.733C473.155 94.4261 473.608 94.9508 474.176 95.3068C474.748 95.6629 475.386 95.8409 476.091 95.8409C476.477 95.8409 476.848 95.7879 477.205 95.6818C477.561 95.5758 477.884 95.4186 478.176 95.2102C478.472 94.9981 478.722 94.7386 478.926 94.4318C479.134 94.1212 479.28 93.7652 479.364 93.3636H480.773C480.667 93.9583 480.473 94.4905 480.193 94.9602C479.913 95.4299 479.564 95.8295 479.148 96.1591C478.731 96.4848 478.263 96.733 477.744 96.9034C477.229 97.0739 476.678 97.1591 476.091 97.1591C475.098 97.1591 474.216 96.9167 473.443 96.4318C472.67 95.947 472.063 95.2576 471.619 94.3636C471.176 93.4697 470.955 92.4091 470.955 91.1818C470.955 89.9545 471.176 88.8939 471.619 88C472.063 87.1061 472.67 86.4167 473.443 85.9318C474.216 85.447 475.098 85.2045 476.091 85.2045C476.678 85.2045 477.229 85.2898 477.744 85.4602C478.263 85.6307 478.731 85.8807 479.148 86.2102C479.564 86.536 479.913 86.9337 480.193 87.4034C480.473 87.8693 480.667 88.4015 480.773 89ZM485.636 97.2045C485.083 97.2045 484.581 97.1004 484.13 96.892C483.68 96.6799 483.322 96.375 483.057 95.9773C482.791 95.5758 482.659 95.0909 482.659 94.5227C482.659 94.0227 482.757 93.6174 482.954 93.3068C483.151 92.9924 483.414 92.7462 483.744 92.5682C484.074 92.3902 484.437 92.2576 484.835 92.1705C485.236 92.0795 485.64 92.0076 486.045 91.9545C486.575 91.8864 487.005 91.8352 487.335 91.8011C487.668 91.7633 487.911 91.7008 488.062 91.6136C488.218 91.5265 488.295 91.375 488.295 91.1591V91.1136C488.295 90.553 488.142 90.1174 487.835 89.8068C487.532 89.4962 487.072 89.3409 486.454 89.3409C485.814 89.3409 485.312 89.4811 484.949 89.7614C484.585 90.0417 484.329 90.3409 484.182 90.6591L482.909 90.2045C483.136 89.6742 483.439 89.2614 483.818 88.9659C484.2 88.6667 484.617 88.4583 485.068 88.3409C485.522 88.2197 485.969 88.1591 486.409 88.1591C486.689 88.1591 487.011 88.1932 487.375 88.2614C487.742 88.3258 488.096 88.4602 488.437 88.6648C488.782 88.8693 489.068 89.178 489.295 89.5909C489.522 90.0038 489.636 90.5568 489.636 91.25V97H488.295V95.8182H488.227C488.136 96.0076 487.985 96.2102 487.772 96.4261C487.56 96.642 487.278 96.8258 486.926 96.9773C486.574 97.1288 486.144 97.2045 485.636 97.2045ZM485.841 96C486.371 96 486.818 95.8958 487.182 95.6875C487.549 95.4792 487.825 95.2102 488.011 94.8807C488.2 94.5511 488.295 94.2045 488.295 93.8409V92.6136C488.238 92.6818 488.113 92.7443 487.92 92.8011C487.731 92.8542 487.511 92.9015 487.261 92.9432C487.015 92.9811 486.774 93.0152 486.539 93.0455C486.308 93.072 486.121 93.0947 485.977 93.1136C485.629 93.1591 485.303 93.233 485 93.3352C484.7 93.4337 484.458 93.5833 484.272 93.7841C484.091 93.9811 484 94.25 484 94.5909C484 95.0568 484.172 95.4091 484.517 95.6477C484.865 95.8826 485.307 96 485.841 96ZM496.079 88.2727V89.4091H491.556V88.2727H496.079ZM492.874 86.1818H494.215V94.5C494.215 94.8788 494.27 95.1629 494.38 95.3523C494.494 95.5379 494.638 95.6629 494.812 95.7273C494.99 95.7879 495.177 95.8182 495.374 95.8182C495.522 95.8182 495.643 95.8106 495.738 95.7955C495.833 95.7765 495.909 95.7614 495.965 95.75L496.238 96.9545C496.147 96.9886 496.02 97.0227 495.857 97.0568C495.695 97.0947 495.488 97.1136 495.238 97.1136C494.859 97.1136 494.488 97.0322 494.124 96.8693C493.765 96.7064 493.465 96.4583 493.227 96.125C492.992 95.7917 492.874 95.3712 492.874 94.8636V86.1818ZM501.861 97.1818C501.02 97.1818 500.295 96.9962 499.685 96.625C499.079 96.25 498.611 95.7273 498.282 95.0568C497.956 94.3826 497.793 93.5985 497.793 92.7045C497.793 91.8106 497.956 91.0227 498.282 90.3409C498.611 89.6553 499.07 89.1212 499.657 88.7386C500.248 88.3523 500.937 88.1591 501.725 88.1591C502.18 88.1591 502.628 88.2348 503.072 88.3864C503.515 88.5379 503.918 88.7841 504.282 89.125C504.645 89.4621 504.935 89.9091 505.151 90.4659C505.367 91.0227 505.475 91.7083 505.475 92.5227V93.0909H498.748V91.9318H504.111C504.111 91.4394 504.013 91 503.816 90.6136C503.623 90.2273 503.346 89.9223 502.986 89.6989C502.63 89.4754 502.21 89.3636 501.725 89.3636C501.191 89.3636 500.729 89.4962 500.339 89.7614C499.952 90.0227 499.655 90.3636 499.447 90.7841C499.238 91.2045 499.134 91.6553 499.134 92.1364V92.9091C499.134 93.5682 499.248 94.1269 499.475 94.5852C499.706 95.0398 500.026 95.3864 500.435 95.625C500.844 95.8598 501.32 95.9773 501.861 95.9773C502.214 95.9773 502.532 95.928 502.816 95.8295C503.104 95.7273 503.352 95.5758 503.56 95.375C503.769 95.1705 503.93 94.9167 504.043 94.6136L505.339 94.9773C505.202 95.4167 504.973 95.803 504.651 96.1364C504.329 96.4659 503.931 96.7235 503.458 96.9091C502.984 97.0909 502.452 97.1818 501.861 97.1818ZM511.237 100.455C510.59 100.455 510.033 100.371 509.567 100.205C509.101 100.042 508.713 99.8258 508.402 99.5568C508.095 99.2917 507.851 99.0076 507.669 98.7045L508.737 97.9545C508.859 98.1136 509.012 98.2955 509.198 98.5C509.383 98.7083 509.637 98.8883 509.959 99.0398C510.285 99.1951 510.711 99.2727 511.237 99.2727C511.942 99.2727 512.523 99.1023 512.982 98.7614C513.44 98.4205 513.669 97.8864 513.669 97.1591V95.3864H513.556C513.457 95.5455 513.317 95.7424 513.135 95.9773C512.957 96.2083 512.7 96.4148 512.362 96.5966C512.029 96.7746 511.578 96.8636 511.01 96.8636C510.306 96.8636 509.673 96.697 509.112 96.3636C508.556 96.0303 508.114 95.5455 507.789 94.9091C507.467 94.2727 507.306 93.5 507.306 92.5909C507.306 91.697 507.463 90.9186 507.777 90.2557C508.092 89.589 508.529 89.0739 509.09 88.7102C509.65 88.3428 510.298 88.1591 511.033 88.1591C511.601 88.1591 512.052 88.2538 512.385 88.4432C512.722 88.6288 512.98 88.8409 513.158 89.0795C513.34 89.3144 513.48 89.5076 513.578 89.6591H513.715V88.2727H515.01V97.25C515.01 98 514.84 98.6098 514.499 99.0795C514.162 99.553 513.707 99.8996 513.135 100.119C512.567 100.343 511.934 100.455 511.237 100.455ZM511.192 95.6591C511.73 95.6591 512.184 95.536 512.556 95.2898C512.927 95.0436 513.209 94.6894 513.402 94.2273C513.595 93.7652 513.692 93.2121 513.692 92.5682C513.692 91.9394 513.597 91.3845 513.408 90.9034C513.219 90.4223 512.938 90.0455 512.567 89.7727C512.196 89.5 511.737 89.3636 511.192 89.3636C510.624 89.3636 510.15 89.5076 509.772 89.7955C509.397 90.0833 509.114 90.4697 508.925 90.9545C508.739 91.4394 508.647 91.9773 508.647 92.5682C508.647 93.1742 508.741 93.7102 508.931 94.1761C509.124 94.6383 509.408 95.0019 509.783 95.267C510.162 95.5284 510.631 95.6591 511.192 95.6591ZM521.21 97.1818C520.422 97.1818 519.731 96.9943 519.136 96.6193C518.545 96.2443 518.083 95.7197 517.75 95.0455C517.42 94.3712 517.256 93.5833 517.256 92.6818C517.256 91.7727 517.42 90.9792 517.75 90.3011C518.083 89.6231 518.545 89.0966 519.136 88.7216C519.731 88.3466 520.422 88.1591 521.21 88.1591C521.998 88.1591 522.688 88.3466 523.278 88.7216C523.873 89.0966 524.335 89.6231 524.665 90.3011C524.998 90.9792 525.165 91.7727 525.165 92.6818C525.165 93.5833 524.998 94.3712 524.665 95.0455C524.335 95.7197 523.873 96.2443 523.278 96.6193C522.688 96.9943 521.998 97.1818 521.21 97.1818ZM521.21 95.9773C521.809 95.9773 522.301 95.8239 522.688 95.517C523.074 95.2102 523.36 94.8068 523.545 94.3068C523.731 93.8068 523.824 93.2652 523.824 92.6818C523.824 92.0985 523.731 91.5549 523.545 91.0511C523.36 90.5473 523.074 90.1402 522.688 89.8295C522.301 89.5189 521.809 89.3636 521.21 89.3636C520.612 89.3636 520.119 89.5189 519.733 89.8295C519.347 90.1402 519.061 90.5473 518.875 91.0511C518.689 91.5549 518.597 92.0985 518.597 92.6818C518.597 93.2652 518.689 93.8068 518.875 94.3068C519.061 94.8068 519.347 95.2102 519.733 95.517C520.119 95.8239 520.612 95.9773 521.21 95.9773ZM527.412 97V88.2727H528.707V89.5909H528.798C528.957 89.1591 529.245 88.8087 529.662 88.5398C530.078 88.2708 530.548 88.1364 531.071 88.1364C531.169 88.1364 531.292 88.1383 531.44 88.142C531.588 88.1458 531.7 88.1515 531.775 88.1591V89.5227C531.73 89.5114 531.626 89.4943 531.463 89.4716C531.304 89.4451 531.135 89.4318 530.957 89.4318C530.533 89.4318 530.154 89.5208 529.821 89.6989C529.491 89.8731 529.23 90.1155 529.037 90.4261C528.847 90.733 528.753 91.0833 528.753 91.4773V97H527.412ZM534.694 100.273C534.467 100.273 534.264 100.254 534.086 100.216C533.908 100.182 533.785 100.148 533.717 100.114L534.058 98.9318C534.383 99.0152 534.671 99.0455 534.921 99.0227C535.171 99 535.393 98.8883 535.586 98.6875C535.783 98.4905 535.963 98.1705 536.126 97.7273L536.376 97.0455L533.149 88.2727H534.603L537.012 95.2273H537.103L539.512 88.2727H540.967L537.262 98.2727C537.096 98.7235 536.889 99.0966 536.643 99.392C536.397 99.6913 536.111 99.9129 535.785 100.057C535.463 100.201 535.099 100.273 534.694 100.273Z" fill="#BBC0D0"/>
<line opacity="0.25" x1="454.5" y1="77" x2="454.5" y2="105" stroke="#1F2A47"/>
<line x1="664.939" y1="102.939" x2="680.496" y2="87.383" stroke="#2A27C9" stroke-width="3"/>
<circle cx="678.5" cy="89.5" r="8" fill="white" stroke="#2A27C9" stroke-width="3"/>
</g>
<defs>
<filter id="filter0_d_4_2569" x="0" y="0" width="793" height="234" filterUnits="userSpaceOnUse" color-interpolation-filters="sRGB">
<feFlood flood-opacity="0" result="BackgroundImageFix"/>
<feColorMatrix in="SourceAlpha" type="matrix" values="0 0 0 0 0 0 0 0 0 0 0 0 0 0 0 0 0 0 127 0" result="hardAlpha"/>
<feOffset dy="25"/>
<feGaussianBlur stdDeviation="37.5"/>
<feComposite in2="hardAlpha" operator="out"/>
<feColorMatrix type="matrix" values="0 0 0 0 0.0235294 0 0 0 0 0.027451 0 0 0 0 0.0784314 0 0 0 0.1 0"/>
<feBlend mode="normal" in2="BackgroundImageFix" result="effect1_dropShadow_4_2569"/>
<feBlend mode="normal" in="SourceGraphic" in2="effect1_dropShadow_4_2569" result="shape"/>
</filter>
</defs>
</svg>
