<svg width="56" height="56" viewBox="0 0 56 56" fill="none" xmlns="http://www.w3.org/2000/svg">
<circle cx="28" cy="28" r="27.5" fill="white" stroke="#E2E2ED"/>
<g clip-path="url(#clip0_4_2916)">
<path d="M34.111 30.223C33.4809 30.2235 32.8604 30.3773 32.3031 30.6711C31.7457 30.965 31.2682 31.39 30.9118 31.9096L25.4876 29.4605C25.8729 28.5301 25.8744 27.4852 25.4918 26.5538L30.9085 24.0921C31.4367 24.8561 32.2213 25.4054 33.1198 25.6405C34.0184 25.8756 34.9714 25.7808 35.8061 25.3734C36.6407 24.9659 37.3018 24.2729 37.6692 23.4198C38.0366 22.5668 38.0861 21.6103 37.8088 20.7239C37.5314 19.8375 36.9455 19.0799 36.1574 18.5884C35.3693 18.097 34.4311 17.9043 33.5131 18.0453C32.5951 18.1863 31.758 18.6516 31.1537 19.357C30.5494 20.0623 30.2179 20.9608 30.2193 21.8896C30.2228 22.1095 30.2451 22.3286 30.286 22.5446L24.5276 25.1613C23.9746 24.6431 23.2822 24.2978 22.5356 24.1678C21.789 24.0377 21.0207 24.1285 20.325 24.4292C19.6293 24.7298 19.0366 25.2271 18.6196 25.8599C18.2027 26.4928 17.9797 27.2336 17.978 27.9915C17.9764 28.7493 18.1961 29.4912 18.6103 30.1259C19.0244 30.7605 19.615 31.2604 20.3093 31.5641C21.0037 31.8678 21.7716 31.962 22.5188 31.8352C23.266 31.7084 23.9598 31.3662 24.5151 30.8505L30.2885 33.4571C30.2484 33.673 30.2264 33.8918 30.2226 34.1113C30.2225 34.8806 30.4505 35.6326 30.8777 36.2723C31.305 36.912 31.9124 37.4106 32.6231 37.7051C33.3338 37.9995 34.1158 38.0766 34.8703 37.9266C35.6249 37.7766 36.3179 37.4061 36.8619 36.8622C37.4058 36.3182 37.7763 35.6252 37.9263 34.8707C38.0763 34.1162 37.9992 33.3341 37.7048 32.6234C37.4103 31.9127 36.9117 31.3053 36.272 30.878C35.6323 30.4508 34.8803 30.2228 34.111 30.223ZM34.111 19.6671C34.5506 19.667 34.9804 19.7972 35.346 20.0413C35.7116 20.2854 35.9966 20.6324 36.1649 21.0385C36.3332 21.4446 36.3774 21.8915 36.2917 22.3227C36.206 22.7539 35.9944 23.15 35.6837 23.4609C35.3729 23.7718 34.9769 23.9835 34.5457 24.0694C34.1146 24.1552 33.6676 24.1112 33.2615 23.943C32.8553 23.7748 32.5082 23.49 32.2639 23.1245C32.0197 22.759 31.8893 22.3292 31.8893 21.8896C31.8898 21.3005 32.1239 20.7355 32.5405 20.3189C32.957 19.9022 33.5218 19.6678 34.111 19.6671ZM21.8893 30.223C21.4497 30.2231 21.0199 30.0929 20.6543 29.8488C20.2887 29.6047 20.0037 29.2576 19.8354 28.8515C19.6671 28.4454 19.6229 27.9986 19.7086 27.5674C19.7942 27.1362 20.0059 26.7401 20.3166 26.4292C20.6274 26.1183 21.0234 25.9065 21.4546 25.8207C21.8857 25.7349 22.3326 25.7789 22.7388 25.947C23.145 26.1152 23.4921 26.4001 23.7364 26.7656C23.9806 27.1311 24.111 27.5608 24.111 28.0005C24.1103 28.5895 23.8761 29.1543 23.4596 29.571C23.0431 29.9876 22.4784 30.2221 21.8893 30.223ZM34.111 36.3338C33.6714 36.3338 33.2417 36.2034 32.8762 35.9592C32.5107 35.715 32.2259 35.3679 32.0577 34.9618C31.8894 34.5557 31.8454 34.1088 31.9312 33.6777C32.0169 33.2466 32.2286 32.8506 32.5394 32.5397C32.8503 32.2289 33.2463 32.0172 33.6774 31.9315C34.1085 31.8457 34.5554 31.8897 34.9615 32.058C35.3676 32.2262 35.7147 32.511 35.9589 32.8765C36.2031 33.242 36.3335 33.6717 36.3335 34.1113C36.333 34.7006 36.0987 35.2656 35.682 35.6823C35.2653 36.099 34.7003 36.3333 34.111 36.3338Z" fill="#7780A1"/>
</g>
<defs>
<clipPath id="clip0_4_2916">
<rect width="20" height="20" fill="white" transform="translate(18 18)"/>
</clipPath>
</defs>
</svg>
